<svg width="727" height="187" viewBox="0 0 727 187" fill="none" xmlns="http://www.w3.org/2000/svg">
<g clip-path="url(#clip0_1894_2027)">
<path d="M708.82 127.73C702.33 127.73 696.87 126.92 692.61 125.34C688.81 124.059 685.404 121.82 682.72 118.84C680.161 115.863 678.317 112.34 677.33 108.54C676.114 103.923 675.522 99.1642 675.57 94.39V47.2H658.98V27.2H675.38V0H701.8V27.2H726.04V47.2H701.8V90.28C701.8 96.02 702.95 100.28 705.33 103.36C707.89 106.67 712.21 108.36 718.16 108.36C720.106 108.348 722.048 108.194 723.97 107.9L724.71 107.78L725.01 125.52C723.29 126 721.28 126.43 719.01 126.82C715.645 127.408 712.237 127.713 708.82 127.73Z" fill="white"/>
<path d="M309.53 41.28C307.368 35.9287 303.548 31.4112 298.63 28.39C293.76 25.48 287.63 24.01 280.37 24.01C275.112 23.9944 269.912 25.1061 265.12 27.27C260.433 29.3414 256.184 32.2874 252.6 35.95C252.02 36.55 251.46 37.22 250.9 37.9L245.12 44.95L244.27 26.2H220.91V124.69H245.7V65.02C245.678 62.1091 246.303 59.2296 247.53 56.59C248.714 54.0778 250.347 51.8036 252.35 49.88C254.464 47.8678 256.979 46.3242 259.73 45.35C262.578 44.3418 265.579 43.8311 268.6 43.84H269.6C273.04 43.7603 276.441 44.5771 279.47 46.21C282.619 47.998 285.083 50.7849 286.47 54.13C287.941 57.9238 288.641 61.9726 288.53 66.04V124.7H313.53V63.43C313.53 55.27 312.4 48.22 310.15 42.43L309.53 41.28Z" fill="white"/>
<path d="M424.79 41.28C422.644 35.9161 418.815 31.3932 413.88 28.39C409.01 25.48 402.88 24.01 395.62 24.01C390.365 23.9934 385.168 25.1051 380.38 27.27C375.691 29.3427 371.438 32.2884 367.85 35.95C367.27 36.55 366.73 37.2 366.17 37.89L360.38 44.96L359.52 26.2H336.17V124.69H360.95V65.02C360.928 62.1081 361.557 59.2281 362.79 56.59C363.96 54.0757 365.592 51.8031 367.6 49.89C369.713 47.8696 372.232 46.322 374.99 45.35C377.835 44.3426 380.832 43.8319 383.85 43.84H384.85C388.287 43.7565 391.686 44.5736 394.71 46.21C397.866 47.9895 400.332 50.7791 401.71 54.13C403.189 57.9217 403.893 61.9716 403.78 66.04V124.7H428.78V63.43C428.78 55.15 427.61 48.01 425.29 42.21L424.79 41.28Z" fill="white"/>
<path d="M633.12 92.56C630.245 96.4746 626.416 99.5874 621.997 101.601C617.577 103.615 612.716 104.463 607.876 104.064C603.035 103.665 598.378 102.032 594.349 99.3211C590.319 96.6104 587.051 92.9123 584.857 88.5796C582.663 84.247 581.616 79.4244 581.816 74.5719C582.015 69.7195 583.455 64.9992 585.997 60.8614C588.54 56.7235 592.1 53.3063 596.339 50.9357C600.578 48.5651 605.353 47.3203 610.21 47.32C614.558 47.3112 618.849 48.3044 622.751 50.2224C626.653 52.1405 630.061 54.9319 632.71 58.38L648.04 40.04C640.873 32.4554 631.59 27.2026 621.398 24.9643C611.206 22.7261 600.576 23.606 590.891 27.4898C581.205 31.3735 572.912 38.0814 567.09 46.7412C561.268 55.401 558.186 65.6121 558.245 76.047C558.304 86.4818 561.501 96.6576 567.42 105.251C573.339 113.845 581.707 120.459 591.436 124.233C601.164 128.008 611.803 128.768 621.969 126.415C632.136 124.062 641.359 118.705 648.44 111.04L633.12 92.56Z" fill="white"/>
<path d="M530.72 38.04C526.533 33.6282 521.491 30.1166 515.9 27.72C509.885 25.2068 503.419 23.9544 496.9 24.04C489.975 23.9689 483.104 25.2635 476.68 27.85C470.725 30.2732 465.347 33.9261 460.9 38.57C456.383 43.3028 452.849 48.8835 450.5 54.99C447.951 61.6768 446.686 68.7843 446.77 75.94C446.602 85.0947 448.906 94.1252 453.44 102.08C457.894 109.694 464.37 115.924 472.15 120.08C480.15 124.48 489.86 126.71 500.86 126.71C505.44 126.693 510.002 126.156 514.46 125.11C519.112 124.01 523.627 122.393 527.92 120.29C531.434 118.576 534.756 116.494 537.83 114.08L526.83 98.59C523.923 100.657 520.777 102.366 517.46 103.68C513.213 105.208 508.724 105.956 504.21 105.89C497.866 106.035 491.577 104.685 485.85 101.95C480.74 99.4328 476.497 95.45 473.66 90.51C472.376 88.2269 471.395 85.7864 470.74 83.25L469.56 78.84H543.1L543.23 73.68C543.52 66.9122 542.501 60.1521 540.23 53.77C538.174 47.9294 534.937 42.5749 530.72 38.04ZM520.89 67.91H469.71L470.71 63.63C471.174 61.5841 471.844 59.5906 472.71 57.68C474.766 53.2635 478.151 49.5995 482.39 47.2C486.976 44.7457 492.121 43.5258 497.32 43.66C501.3 43.6067 505.237 44.4798 508.82 46.21C512.171 47.8637 515.05 50.3368 517.19 53.4C519.336 56.5302 520.609 60.1749 520.88 63.96V67.96L520.89 67.91Z" fill="white"/>
<path d="M107.82 74.09H107.81L107.82 74.08V74.09Z" fill="white"/>
<path d="M91.5998 85.18V85.19L91.5898 85.18H91.5998Z" fill="white"/>
<path d="M99.3401 81.06L99.3301 81.07V81.06H99.3401Z" fill="white"/>
<path d="M99.6301 95.26L99.6201 95.25H99.6301V95.26Z" fill="white"/>
<path d="M103.83 91.59L103.82 91.58H103.83V91.59Z" fill="white"/>
<path d="M151.44 23.75C150.03 23.75 148.64 23.82 147.26 23.93L146.09 24.03L145.21 24.13C144.51 24.21 143.81 24.31 143.12 24.41H142.93C142.45 24.48 141.93 24.55 141.5 24.64H141.24C140.8 24.72 140.37 24.81 139.89 24.93C134.539 26.1088 129.412 28.1343 124.7 30.93C123.7 31.51 122.83 32.08 121.95 32.69C120.64 33.59 119.36 34.54 118.13 35.55C117.58 36.01 117.05 36.47 116.52 36.95L116.42 37.04C116.22 37.2025 116.03 37.3761 115.85 37.56L115.75 37.66L115.65 37.75L115.44 37.94C114.66 38.68 113.9 39.45 113.17 40.23L110.95 42.79C110.84 42.92 110.71 43.06 110.57 43.25L105.46 50.33L104.36 51.84L104.06 52.26L103.55 52.96L103.34 53.24V53.36L102.6 54.25L102.53 54.35L101.69 55.52L101.63 55.44L98.6299 59.56L99.2299 60.48C99.7699 61.33 100.3 62.18 100.8 63.06C101.11 63.62 101.43 64.17 101.75 64.72L101.85 64.88L102.01 64.8C102.191 64.7282 102.389 64.7108 102.58 64.75C103.37 64.9056 104.128 65.1965 104.82 65.61C104.9 65.6579 104.988 65.6918 105.08 65.71C105.558 65.832 106.025 65.989 106.48 66.18C106.81 66.32 107.15 66.44 107.48 66.56C107.846 66.667 108.185 66.8484 108.478 67.0927C108.771 67.337 109.009 67.6391 109.18 67.98C109.35 68.29 109.49 68.62 109.65 68.98L110.14 69.98C110.26 70.21 110.38 70.45 110.51 70.68C110.942 71.4859 111.444 72.2522 112.01 72.97C112.312 73.3273 112.589 73.7049 112.84 74.1C113.094 74.5135 113.295 74.9568 113.44 75.42C113.61 75.9 113.76 76.42 113.97 76.85C114.111 77.1776 114.275 77.495 114.46 77.8C114.497 77.8578 114.53 77.918 114.56 77.98L116.2 75.72L116.56 75.22L117.92 73.35L118.43 72.66L118.6 72.44L121.6 68.28L123.31 65.91L124.23 64.66L129.39 57.51L129.52 57.38C130.23 56.59 130.96 55.85 131.69 55.16L131.75 55.23C136.591 50.5565 142.943 47.7686 149.66 47.37C150.15 47.37 150.66 47.37 151.14 47.37C156.157 47.3701 161.085 48.698 165.424 51.2189C169.762 53.7399 173.356 57.364 175.84 61.7233C178.324 66.0826 179.611 71.0217 179.569 76.039C179.526 81.0563 178.157 85.9731 175.6 90.29C175.097 91.1354 174.55 91.9532 173.96 92.74C171.653 95.8278 168.746 98.4184 165.415 100.357C162.083 102.295 158.394 103.541 154.57 104.02H154.41H153.92C153.08 104.1 152.23 104.14 151.38 104.14C149.021 104.149 146.671 103.87 144.38 103.31H144.32L143.87 103.19L143.23 103C142.64 102.83 142.04 102.63 141.44 102.4L140.78 102.14C140 101.81 139.2 101.44 138.42 101.02L137.07 100.26L136.71 100.04C135.806 99.4732 134.934 98.8555 134.1 98.19C131.969 96.5012 130.036 94.5755 128.34 92.45L127.98 91.97L127.93 91.88L127.38 91.13L126.67 90.19L122.57 84.54L122.23 84.07C122.23 84.07 121.43 82.77 120.92 82.07L118.06 85.84L117.75 86.24L109.54 97.05L109.26 97.42L109.02 97.73L108.73 98.12L106.04 101.76L109.55 106.61L109.86 107.04C109.98 107.21 110.12 107.38 110.27 107.56C111.246 108.829 112.297 110.038 113.42 111.18L113.55 111.32L113.42 111.47C118.279 116.625 124.142 120.731 130.649 123.534C137.155 126.337 144.166 127.779 151.25 127.77C158.079 127.786 164.844 126.456 171.159 123.858C177.474 121.259 183.215 117.442 188.055 112.624C192.894 107.807 196.738 102.083 199.366 95.7804C201.993 89.4775 203.354 82.7188 203.37 75.89C203.386 69.0613 202.056 62.2963 199.458 55.9814C196.859 49.6664 193.042 43.9251 188.224 39.0853C183.407 34.2455 177.683 30.402 171.38 27.7742C165.077 25.1464 158.319 23.7858 151.49 23.77L151.44 23.75Z" fill="white"/>
<path d="M114.62 78.02L114.44 78.28C114.13 77.7 113.86 77.1 113.6 76.48C113.34 75.86 113.16 75.48 112.89 74.95C112.678 74.6044 112.448 74.2706 112.2 73.95L111.63 73.18C111.356 72.7855 111.112 72.371 110.9 71.94L110.4 70.94C109.97 70.15 109.54 69.37 109.12 68.57C108.762 67.8663 108.162 67.3157 107.43 67.02C106.84 66.78 106.23 66.57 105.62 66.35C105.498 66.2941 105.363 66.2733 105.23 66.29C105.45 66.48 105.47 66.58 105.35 66.88C105.288 67.0438 105.192 67.1931 105.07 67.3187C104.948 67.4442 104.802 67.5434 104.64 67.61H104.58C104.929 67.3297 105.155 66.9243 105.21 66.48C104.584 66.0706 103.913 65.735 103.21 65.48C102.966 65.3945 102.715 65.3309 102.46 65.29C102.463 65.4254 102.483 65.5597 102.52 65.69C102.52 65.82 102.52 65.95 102.58 66.08C102.64 66.21 102.58 66.33 102.58 66.46C102.58 66.59 102.58 66.72 102.58 66.87C102.53 66.8379 102.488 66.7953 102.457 66.7452C102.426 66.695 102.406 66.6386 102.4 66.58L102.28 65.92C102.266 65.7762 102.202 65.6419 102.1 65.54C102.005 65.5901 101.925 65.6648 101.869 65.7563C101.812 65.8478 101.782 65.9526 101.78 66.06C101.764 66.1929 101.764 66.3271 101.78 66.46V66.64C101.771 66.6711 101.773 66.7039 101.783 66.7343C101.794 66.7646 101.814 66.791 101.84 66.81C101.821 66.8826 101.817 66.9584 101.829 67.0324C101.841 67.1064 101.869 67.1771 101.91 67.24C102.03 67.24 102.05 67.39 102.05 67.51L101.96 67.43L102.05 67.55C102.035 67.5989 102.035 67.6511 102.05 67.7C102.165 68.0882 102.312 68.4661 102.49 68.83C102.64 69.09 102.78 69.35 102.94 69.59C103.23 70.0121 103.565 70.4011 103.94 70.75C104.125 70.9395 104.341 71.0952 104.58 71.21C104.793 71.3038 105.028 71.3383 105.26 71.31C105.353 71.307 105.443 71.2757 105.518 71.2203C105.593 71.165 105.649 71.0881 105.68 71C105.846 70.6535 106.097 70.3544 106.41 70.13C106.545 70.0135 106.707 69.9324 106.882 69.894C107.056 69.8556 107.238 69.8611 107.41 69.91C107.41 69.99 107.41 69.99 107.34 70L106.89 70.15C106.644 70.2576 106.433 70.4306 106.28 70.65C106.104 70.9004 105.944 71.1608 105.8 71.43C105.742 71.5339 105.715 71.6515 105.72 71.77C106.05 71.82 106.28 71.59 106.51 71.37C106.57 71.37 106.51 71.46 106.51 71.51L106.39 71.7H106.47C106.47 71.7 106.35 71.78 106.3 71.83C106.261 71.8588 106.231 71.8969 106.212 71.9407C106.193 71.9844 106.185 72.0324 106.19 72.08C106.25 72.08 106.32 72.15 106.28 72.25C106.24 72.35 106.33 72.4 106.38 72.4C106.43 72.4 106.38 72.55 106.48 72.55C106.58 72.55 106.48 72.66 106.48 72.71C106.506 72.7504 106.526 72.7941 106.54 72.84C106.54 72.97 106.54 72.97 106.69 73.11V73.19C106.76 73.32 106.77 73.51 106.93 73.58C106.85 73.71 107.07 73.68 107.01 73.79C106.95 73.9 107.08 73.96 107.18 73.95C107.28 73.94 107.23 74 107.24 74.05C107.25 74.1 107.29 74.1 107.33 74.13C107.306 74.1684 107.275 74.2023 107.24 74.23C107.305 74.2331 107.371 74.2231 107.433 74.2008C107.494 74.1785 107.551 74.1443 107.6 74.1C107.6 74.1 107.68 74.02 107.74 74.04L107.3 74.4L107.56 74.29L108.16 74.03C108.362 73.9611 108.576 73.9306 108.79 73.94C108.836 73.9344 108.883 73.9344 108.93 73.94L108.75 74.01C108.53 74.09 108.32 74.19 108.1 74.29C107.982 74.3474 107.88 74.4301 107.798 74.5321C107.717 74.6341 107.659 74.753 107.63 74.88C107.564 75.0902 107.534 75.3099 107.54 75.53C107.72 75.48 107.73 75.26 107.86 75.18C107.86 75.18 107.86 75.25 107.86 75.32L108.07 75.23C107.94 75.445 107.852 75.6824 107.81 75.93C107.93 75.79 108.02 75.67 108.13 75.56C108.288 75.3902 108.5 75.2806 108.73 75.25L108.53 75.39C108.32 75.4996 108.149 75.6706 108.04 75.88C107.963 75.9925 107.918 76.1239 107.91 76.26C107.91 76.26 107.91 76.33 107.91 76.37C107.952 76.3284 107.989 76.2814 108.02 76.23C108.02 76.13 108.1 76.02 108.14 75.92C108.144 75.9632 108.144 76.0068 108.14 76.05C108.14 76.17 108.08 76.29 108.06 76.42C108.04 76.55 108 76.61 108.12 76.65C108.24 76.69 108.12 76.87 108.12 77C108.179 76.9877 108.236 76.9676 108.29 76.94C108.53 76.7888 108.806 76.7058 109.09 76.7C109.791 76.6785 110.484 76.8553 111.09 77.21C111.147 77.2364 111.199 77.2738 111.242 77.3201C111.284 77.3665 111.318 77.4208 111.34 77.48L111.16 77.4C110.438 77.0424 109.604 76.9848 108.84 77.24L108.67 77.3C108.559 77.3487 108.465 77.4285 108.4 77.5298C108.334 77.631 108.299 77.7493 108.3 77.87V78.17H108.46H108.66C109.045 78.1299 109.434 78.1299 109.82 78.17C110.23 78.24 110.64 78.27 111.05 78.33C111.377 78.3725 111.693 78.4777 111.98 78.64C111.98 78.64 111.98 78.64 112.03 78.71C111.027 78.3588 109.939 78.3308 108.92 78.63C108.92 78.74 108.92 78.74 109.01 78.76C109.4 78.97 109.81 79.17 110.2 79.39C110.665 79.6521 111.098 79.9676 111.49 80.33C111.532 80.3611 111.561 80.4078 111.57 80.46H111.46C110.952 80.1215 110.421 79.8207 109.87 79.56C109.36 79.3281 108.827 79.1505 108.28 79.03H108.16C108.099 79.4408 108.062 79.8549 108.05 80.27C108.05 81.06 108.05 81.86 108.05 82.65C108.05 82.88 108.05 83.11 108.05 83.34C108.035 83.4193 108.035 83.5007 108.05 83.58C108.05 83.58 108.05 83.67 108 83.74L108.21 83.89H108C107.94 84.43 107.89 84.98 107.84 85.52C107.84 85.69 107.84 85.86 107.84 86.02C107.823 86.2819 107.901 86.5411 108.06 86.75L107.51 87.51C107.51 87.28 107.51 87.05 107.51 86.82C107.48 86.3205 107.48 85.8196 107.51 85.32C107.51 84.67 107.57 84.02 107.59 83.32C107.61 82.62 107.59 82.12 107.59 81.53C107.59 81.42 107.59 81.31 107.59 81.19H107.47C107.48 80.6449 107.52 80.1008 107.59 79.56C107.663 78.8726 107.686 78.1808 107.66 77.49C107.636 77.1397 107.537 76.7987 107.37 76.49C107.24 76.21 107.12 75.93 106.98 75.66C106.84 75.39 106.74 75.2 106.62 74.98C106.5 74.76 106.33 74.52 106.19 74.28L105.93 73.83L105.39 72.97C105.39 72.97 105.33 73.04 105.39 73.09C105.45 73.14 105.55 73.3 105.53 73.47C105.51 73.64 105.61 73.57 105.66 73.62C105.71 73.67 105.66 73.7 105.66 73.75C105.66 73.62 105.66 73.62 105.48 73.61C105.171 72.8794 104.745 72.2039 104.22 71.61C103.85 71.17 103.46 70.75 103.07 70.33C103.118 70.4646 103.189 70.5898 103.28 70.7L103.88 71.48C103.988 71.6166 104.082 71.764 104.16 71.92L103.65 71.31C103.2 70.77 102.75 70.23 102.32 69.68C101.89 69.13 101.5 68.6 101.1 68.05C100.96 67.86 100.84 67.64 100.71 67.43C100.58 67.22 100.4 66.91 100.24 66.65C99.8897 66.08 99.5697 65.48 99.2397 64.86C99.2054 64.7954 99.1882 64.7231 99.1896 64.65C99.2796 64.82 99.3796 64.98 99.4696 65.14C99.7596 65.66 100.03 66.14 100.36 66.67C100.55 66.96 100.72 67.27 100.9 67.58L101.03 67.77C101.17 67.99 101.32 68.21 101.47 68.42C101.62 68.63 101.69 68.71 101.82 68.88C101.62 68.5 101.44 68.16 101.27 67.82C101.108 67.4975 100.971 67.1632 100.86 66.82C100.806 66.62 100.746 66.42 100.68 66.22C100.63 66.0948 100.63 65.9553 100.68 65.83C100.752 65.6403 100.839 65.4564 100.94 65.28C100.974 65.2077 101.028 65.1462 101.095 65.1021C101.162 65.0581 101.24 65.0331 101.32 65.03H101.48C101.43 64.78 101.22 64.69 101.13 64.5H101.21C101.14 64.406 101.08 64.3055 101.03 64.2C100.59 63.32 100.03 62.49 99.5497 61.66C99.2697 61.2 98.9896 60.75 98.6996 60.3L98.3896 59.83L98.6296 59.5L99.2296 60.42C99.7696 61.27 100.3 62.12 100.8 63C101.11 63.56 101.43 64.11 101.75 64.66L101.85 64.82L102.01 64.74C102.191 64.6682 102.389 64.6508 102.58 64.69C103.37 64.8456 104.128 65.1365 104.82 65.55C104.9 65.5979 104.988 65.6318 105.08 65.65C105.557 65.772 106.025 65.929 106.48 66.12C106.81 66.26 107.15 66.38 107.48 66.5C107.845 66.607 108.185 66.7884 108.478 67.0327C108.77 67.2771 109.009 67.5791 109.18 67.92C109.35 68.23 109.49 68.56 109.65 68.92L110.14 69.92C110.26 70.15 110.38 70.39 110.51 70.62C110.941 71.4259 111.443 72.1922 112.01 72.91C112.312 73.2673 112.589 73.6449 112.84 74.04C113.094 74.4535 113.295 74.8968 113.44 75.36C113.61 75.84 113.76 76.36 113.97 76.79C114.111 77.1176 114.275 77.435 114.46 77.74C114.522 77.8278 114.576 77.9216 114.62 78.02Z" fill="white"/>
<path d="M126.85 108.56V108.58L126.84 108.56H126.85Z" fill="white"/>
<path d="M117.64 85.18C117.436 84.6752 117.265 84.1574 117.13 83.63C117.01 83.19 116.87 82.76 116.74 82.33C116.556 81.8034 116.339 81.289 116.09 80.79C115.95 80.49 115.8 80.21 115.64 79.92C115.48 79.63 115.35 79.46 115.21 79.22C115.07 78.98 114.78 78.45 114.55 78.08C114.52 78.0179 114.487 77.9578 114.45 77.9C114.265 77.595 114.101 77.2776 113.96 76.95C113.75 76.49 113.6 75.95 113.43 75.52C113.285 75.0568 113.084 74.6134 112.83 74.2C112.579 73.8048 112.302 73.4273 112 73.07C111.434 72.3521 110.932 71.5859 110.5 70.78C110.37 70.55 110.25 70.31 110.13 70.08L109.64 69.08C109.48 68.76 109.34 68.43 109.17 68.08C108.999 67.7391 108.761 67.437 108.468 67.1927C108.175 66.9483 107.836 66.767 107.47 66.66C107.14 66.54 106.8 66.42 106.47 66.28C106.015 66.089 105.547 65.9319 105.07 65.81C104.978 65.7917 104.89 65.7579 104.81 65.71C104.118 65.2965 103.36 65.0056 102.57 64.85C102.379 64.8108 102.181 64.8282 102 64.9L101.84 64.98L101.74 64.82C101.42 64.27 101.1 63.72 100.79 63.16C100.29 62.28 99.7899 61.43 99.2199 60.58L98.6199 59.66L98.3799 59.99L98.6899 60.46C98.9799 60.91 99.2599 61.36 99.5399 61.82C100.06 62.65 100.54 63.48 101.02 64.36C101.07 64.4655 101.13 64.566 101.2 64.66H101.12C101.21 64.85 101.42 64.94 101.47 65.19H101.31C101.23 65.1931 101.152 65.218 101.085 65.2621C101.018 65.3061 100.964 65.3676 100.93 65.44C100.829 65.6163 100.742 65.8002 100.67 65.99C100.62 66.1152 100.62 66.2547 100.67 66.38C100.737 66.58 100.797 66.78 100.85 66.98C100.961 67.3232 101.098 67.6575 101.26 67.98C101.43 68.32 101.61 68.66 101.81 69.04C101.68 68.87 101.56 68.73 101.46 68.58C101.36 68.43 101.16 68.15 101.02 67.93L100.89 67.74C100.71 67.43 100.54 67.12 100.35 66.83C100.02 66.34 99.7499 65.83 99.4599 65.3C99.3699 65.14 99.2699 64.98 99.1799 64.81C99.1784 64.8831 99.1956 64.9554 99.2299 65.02C99.5299 65.64 99.8499 66.24 100.23 66.81C100.39 67.07 100.55 67.33 100.7 67.59C100.85 67.85 100.95 68.02 101.09 68.21C101.49 68.76 101.89 69.31 102.31 69.84C102.73 70.37 103.19 70.93 103.64 71.47L104.15 72.08C104.072 71.924 103.978 71.7766 103.87 71.64L103.27 70.86C103.179 70.7498 103.108 70.6246 103.06 70.49C103.45 70.91 103.84 71.33 104.21 71.77C104.736 72.3639 105.161 73.0394 105.47 73.77C105.61 73.77 105.61 73.77 105.65 73.91C105.65 73.91 105.65 73.82 105.65 73.78C105.65 73.74 105.52 73.68 105.52 73.63C105.52 73.58 105.43 73.38 105.38 73.25C105.33 73.12 105.38 73.17 105.38 73.13L105.92 73.99L106.18 74.44C106.32 74.68 106.47 74.91 106.61 75.14C106.75 75.37 106.86 75.59 106.97 75.82C107.08 76.05 107.23 76.37 107.36 76.65C107.527 76.9587 107.626 77.2997 107.65 77.65C107.676 78.3408 107.653 79.0326 107.58 79.72C107.51 80.2608 107.47 80.8049 107.46 81.35H107.58C107.58 81.47 107.58 81.58 107.58 81.69C107.58 82.28 107.58 82.88 107.58 83.48C107.58 84.08 107.52 84.78 107.5 85.48C107.47 85.9796 107.47 86.4805 107.5 86.98C107.5 87.21 107.5 87.44 107.5 87.67L108.05 86.91C107.891 86.7011 107.813 86.4418 107.83 86.18C107.83 86.02 107.83 85.85 107.83 85.68C107.88 85.14 107.93 84.59 107.99 84.05H108.2L107.99 83.9C107.99 83.83 108.06 83.77 108.04 83.74C108.025 83.6607 108.025 83.5793 108.04 83.5C108.04 83.27 108.04 83.04 108.04 82.81C108.04 82.02 108.04 81.22 108.04 80.43C108.052 80.0148 108.089 79.6008 108.15 79.19H108.27C108.817 79.3105 109.35 79.4882 109.86 79.72C110.411 79.9807 110.943 80.2815 111.45 80.62H111.56C111.551 80.5678 111.523 80.521 111.48 80.49C111.088 80.1275 110.655 79.812 110.19 79.55C109.8 79.33 109.39 79.13 109 78.92C108.95 78.92 108.88 78.92 108.91 78.79C109.929 78.4908 111.017 78.5187 112.02 78.87C112.02 78.82 112.02 78.8 111.97 78.8C111.683 78.6377 111.367 78.5324 111.04 78.49C110.63 78.43 110.22 78.4 109.81 78.33C109.424 78.2899 109.035 78.2899 108.65 78.33H108.45H108.29V78.03C108.289 77.9093 108.324 77.791 108.39 77.6898C108.456 77.5885 108.549 77.5087 108.66 77.46L108.83 77.4C109.594 77.1448 110.428 77.2023 111.15 77.56L111.33 77.64C111.308 77.5807 111.275 77.5264 111.232 77.4801C111.189 77.4337 111.137 77.3963 111.08 77.37C110.474 77.0152 109.781 76.8384 109.08 76.86C108.796 76.8658 108.52 76.9488 108.28 77.1C108.226 77.1276 108.169 77.1478 108.11 77.16C108.11 77.03 108.11 76.92 108.11 76.81C108.11 76.7 108.04 76.66 108.05 76.58C108.06 76.5 108.11 76.33 108.13 76.21C108.135 76.1668 108.135 76.1232 108.13 76.08C108.13 76.18 108.06 76.29 108.01 76.39C107.98 76.4413 107.943 76.4884 107.9 76.53L107.96 76.59L107.91 76.52C107.91 76.52 107.91 76.45 107.91 76.41C107.918 76.2739 107.963 76.1425 108.04 76.03C108.149 75.8206 108.32 75.6496 108.53 75.54L108.73 75.4C108.5 75.4306 108.288 75.5402 108.13 75.71C108.02 75.82 107.93 75.94 107.81 76.08C107.852 75.8324 107.94 75.5949 108.07 75.38L107.86 75.47C107.86 75.4 107.86 75.36 107.86 75.33C107.73 75.41 107.72 75.63 107.54 75.68C107.534 75.4598 107.564 75.2402 107.63 75.03C107.66 74.903 107.717 74.7841 107.798 74.6821C107.88 74.5801 107.983 74.4973 108.1 74.44C108.32 74.34 108.53 74.24 108.75 74.16L108.93 74.09C108.883 74.0844 108.836 74.0844 108.79 74.09C108.576 74.0805 108.362 74.111 108.16 74.18L107.56 74.44L107.3 74.55L107.74 74.19C107.68 74.19 107.64 74.19 107.6 74.25C107.551 74.2942 107.495 74.3285 107.433 74.3508C107.371 74.3731 107.306 74.383 107.24 74.38C107.276 74.3523 107.306 74.3184 107.33 74.28C107.33 74.28 107.25 74.28 107.24 74.2C107.23 74.12 107.24 74.09 107.18 74.1C107.12 74.11 107.07 73.99 107.01 73.94C106.95 73.89 106.85 73.86 106.93 73.73C106.77 73.66 106.76 73.47 106.69 73.34V73.26C106.57 73.12 106.57 73.12 106.54 72.99C106.526 72.9441 106.506 72.9003 106.48 72.86C106.48 72.81 106.48 72.7 106.48 72.7C106.48 72.7 106.48 72.56 106.38 72.55C106.28 72.54 106.38 72.41 106.28 72.4C106.18 72.39 106.28 72.26 106.19 72.23C106.185 72.1824 106.193 72.1344 106.212 72.0907C106.232 72.0469 106.262 72.0088 106.3 71.98C106.35 71.93 106.42 71.9 106.47 71.85H106.39L106.51 71.66C106.51 71.66 106.56 71.56 106.51 71.52C106.28 71.74 106.05 71.97 105.72 71.92C105.715 71.8014 105.743 71.6839 105.8 71.58C105.944 71.3108 106.105 71.0503 106.28 70.8C106.433 70.5805 106.645 70.4075 106.89 70.3L107.34 70.15C107.34 70.15 107.41 70.15 107.41 70.06C107.238 70.011 107.057 70.0055 106.882 70.0439C106.708 70.0823 106.545 70.1635 106.41 70.28C106.098 70.5044 105.847 70.8035 105.68 71.15C105.65 71.2381 105.593 71.315 105.518 71.3703C105.443 71.4257 105.353 71.457 105.26 71.46C105.028 71.4883 104.793 71.4537 104.58 71.36C104.341 71.2451 104.125 71.0895 103.94 70.9C103.565 70.5511 103.23 70.162 102.94 69.74C102.78 69.5 102.64 69.24 102.49 68.98C102.312 68.6161 102.165 68.2381 102.05 67.85C102.035 67.8011 102.035 67.7489 102.05 67.7L101.96 67.58L102.05 67.66C102.05 67.54 102.05 67.43 101.91 67.39C101.911 67.3667 101.911 67.3433 101.91 67.32C101.869 67.2571 101.842 67.1864 101.83 67.1123C101.818 67.0383 101.821 66.9626 101.84 66.89C101.814 66.871 101.794 66.8446 101.784 66.8142C101.773 66.7839 101.772 66.7511 101.78 66.72V66.54C101.765 66.4071 101.765 66.2729 101.78 66.14C101.782 66.0326 101.813 65.9277 101.869 65.8362C101.925 65.7447 102.005 65.6701 102.1 65.62C102.202 65.7218 102.266 65.8562 102.28 66L102.4 66.66C102.407 66.7186 102.426 66.775 102.457 66.8252C102.489 66.8753 102.53 66.9179 102.58 66.95C102.58 66.8 102.58 66.67 102.58 66.54C102.58 66.41 102.58 66.29 102.58 66.16C102.58 66.03 102.58 65.9 102.52 65.77C102.483 65.6397 102.463 65.5053 102.46 65.37C102.715 65.4108 102.966 65.4744 103.21 65.56C103.913 65.8149 104.584 66.1505 105.21 66.56C105.155 67.0043 104.929 67.4096 104.58 67.69H104.64C104.802 67.6233 104.948 67.5242 105.071 67.3987C105.193 67.2731 105.288 67.1238 105.35 66.96C105.47 66.66 105.45 66.56 105.23 66.37C105.363 66.3533 105.498 66.374 105.62 66.43C106.23 66.65 106.84 66.86 107.43 67.1C108.162 67.3957 108.762 67.9463 109.12 68.65C109.54 69.45 109.97 70.23 110.4 71.02L110.9 72.02C111.112 72.451 111.356 72.8655 111.63 73.26L112.2 74.03C112.448 74.3506 112.678 74.6844 112.89 75.03C113.16 75.52 113.37 76.03 113.6 76.56C113.83 77.09 114.13 77.78 114.44 78.36C114.473 78.432 114.509 78.5021 114.55 78.57C114.9 79.17 115.23 79.77 115.55 80.37C115.895 81.0015 116.16 81.6733 116.34 82.37L116.91 84.37C117.097 85.0751 117.387 85.749 117.77 86.37L118.08 85.97C117.935 85.6963 117.812 85.4122 117.71 85.12L117.64 85.18ZM100.82 66.59C100.76 66.5 100.82 66.41 100.82 66.32C100.93 66.33 100.96 66.41 100.88 66.5L100.82 66.59ZM107.24 75.2C107.336 75.0517 107.382 74.8763 107.37 74.7L107.75 74.49C107.547 74.7543 107.391 75.0521 107.29 75.37C107.16 75.27 107.16 75.27 107.1 75.06L107.24 75.2ZM106.93 74.76L106.98 74.82C106.982 74.7967 106.982 74.7733 106.98 74.75L106.93 74.76ZM106.54 74.05C106.569 74.0791 106.592 74.1129 106.61 74.15L106.55 74.06L106.54 74.05ZM105.76 72.23C105.83 72.38 105.91 72.53 105.97 72.69L106.27 73.44C106.27 73.44 106.21 73.44 106.2 73.44L105.64 72.3C105.64 72.3 105.64 72.25 105.64 72.22C105.661 72.2095 105.686 72.2079 105.708 72.2154C105.731 72.2228 105.749 72.2389 105.76 72.26V72.23ZM105.45 73.17C105.27 73.09 105.21 72.92 105.13 72.75L105.45 73.17ZM101.23 65.63C101.23 65.5 101.29 65.43 101.37 65.36C101.37 65.45 101.28 65.54 101.23 65.63C101.206 65.6928 101.176 65.7531 101.14 65.81C101.12 65.73 101.18 65.7 101.23 65.66V65.63ZM101.06 66.28C101.13 66.37 101.13 66.37 101.14 66.65C101.14 66.65 101.07 66.65 101.06 66.57C101.049 66.4837 101.043 66.3969 101.04 66.31L101.06 66.28ZM101.56 68.21C101.531 68.1737 101.507 68.1332 101.49 68.09C101.4 67.83 101.3 67.57 101.22 67.3C101.14 67.03 101.14 66.99 101.1 66.83C101.086 66.8057 101.078 66.7781 101.078 66.75C101.078 66.7219 101.086 66.6943 101.1 66.67C101.1 66.8 101.16 66.92 101.2 67.04L101.47 67.93C101.485 67.9539 101.493 67.9817 101.493 68.01C101.493 68.0383 101.485 68.066 101.47 68.09L101.65 68.27C101.59 68.34 101.59 68.27 101.56 68.2V68.21Z" fill="white"/>
<path d="M98.6899 59.69L98.4499 60.02L97.8599 59.12L97.6099 58.8C97.0264 58.0765 96.4823 57.322 95.9799 56.54C95.9181 56.4499 95.8677 56.3525 95.8299 56.25C95.9899 56.33 96.0499 56.5 96.1899 56.61C96.1988 56.5773 96.1988 56.5427 96.1899 56.51C95.8458 55.8572 95.5709 55.1701 95.3699 54.46C95.1733 53.7811 94.9396 53.1134 94.6699 52.46L94.9399 52.09L95.0299 52.29C95.3342 53.0126 95.5914 53.7542 95.7999 54.51C96.0323 55.3137 96.3474 56.0912 96.7399 56.83C96.9308 57.2167 97.1621 57.5821 97.4299 57.92C97.8799 58.5 98.2899 59.09 98.6899 59.69Z" fill="white"/>
<path d="M114.88 89.38C114.711 89.3949 114.54 89.3949 114.37 89.38C114.324 89.3744 114.277 89.3744 114.23 89.38C114.06 89.38 113.88 89.45 113.72 89.5C113.066 89.6626 112.387 89.6966 111.72 89.6C111.488 89.5636 111.26 89.5032 111.04 89.42C111.04 89.42 110.98 89.42 110.95 89.34C110.99 89.3352 111.03 89.3352 111.07 89.34C111.289 89.4195 111.518 89.4699 111.75 89.49C112.154 89.5215 112.559 89.467 112.94 89.33C113.4 89.19 113.84 89.07 114.3 88.96C114.276 88.9414 114.246 88.9313 114.215 88.9313C114.185 88.9313 114.155 88.9414 114.13 88.96C113.978 89.0097 113.813 89.0097 113.66 88.96C113.55 88.9203 113.43 88.9203 113.32 88.96H113.25C113.255 88.9201 113.255 88.8799 113.25 88.84L112.6 89.07C112.171 89.2364 111.704 89.2814 111.25 89.2C110.662 89.0782 110.108 88.8253 109.63 88.46C109.209 88.1321 108.814 87.7709 108.45 87.38C108.323 87.2399 108.202 87.093 108.09 86.94L107.54 87.7C107.545 87.7899 107.545 87.8801 107.54 87.97C107.527 89.2194 107.342 90.4611 106.99 91.66L106.54 93.26C106.54 93.36 106.54 93.47 106.48 93.57C106.31 94.17 106.14 94.77 105.95 95.37C105.88 95.6 105.78 95.83 105.69 96.05C105.665 96.1213 105.624 96.1862 105.57 96.24C105.429 96.38 105.317 96.5466 105.24 96.73C105.151 96.9333 105.021 97.1157 104.857 97.2655C104.694 97.4153 104.501 97.5293 104.29 97.6C104.05 97.6664 103.795 97.6479 103.567 97.5477C103.34 97.4475 103.153 97.2716 103.04 97.05L102.86 96.68C102.59 95.988 102.548 95.2276 102.74 94.51L102.8 94.23C102.87 93.94 102.94 93.66 103 93.37C103.14 92.67 103.26 91.97 103.39 91.27C103.39 91.27 103.39 91.16 103.39 91.13L103.3 92.54L103.24 93.54L103.15 95.15C103.13 95.4497 103.13 95.7503 103.15 96.05C103.15 96.24 103.26 96.32 103.42 96.31L103.52 96.19C103.52 96.19 103.52 96.13 103.52 96.12C103.52 96.11 103.62 96.06 103.62 95.98L103.41 95.85C103.448 95.825 103.481 95.7947 103.51 95.76L103.45 95.66L103.6 95.6C103.54 95.53 103.44 95.53 103.42 95.42L103.91 95.49C103.91 95.49 103.99 95.49 103.99 95.44L103.39 95.28V94.89C103.39 94.81 103.39 94.8 103.46 94.79C103.53 94.78 103.56 94.86 103.6 94.79C103.34 94.69 103.34 94.69 103.36 94.46L103.82 94.51C103.75 94.4524 103.668 94.4114 103.58 94.39C103.478 94.3747 103.385 94.3211 103.32 94.24H103.38C103.51 94.16 103.53 94.12 103.47 94.01C103.41 93.9 103.47 94.01 103.42 93.94C103.37 93.87 103.42 93.94 103.42 93.87H103.53H103.66L103.41 93.64C103.405 93.5868 103.405 93.5332 103.41 93.48C103.41 93.35 103.41 93.35 103.52 93.37H103.61C103.548 93.3392 103.49 93.2987 103.44 93.25C103.434 93.2444 103.429 93.2374 103.425 93.2297C103.422 93.2219 103.42 93.2135 103.42 93.205C103.42 93.1965 103.422 93.1881 103.425 93.1803C103.429 93.1725 103.434 93.1657 103.44 93.16H103.51H103.59C103.536 93.0806 103.5 92.9896 103.486 92.8943C103.473 92.7989 103.481 92.7017 103.51 92.61H103.71L103.54 92.49C103.529 92.4788 103.52 92.4656 103.514 92.451C103.508 92.4365 103.505 92.4208 103.505 92.405C103.505 92.3892 103.508 92.3736 103.514 92.359C103.52 92.3444 103.529 92.3312 103.54 92.32C103.59 92.32 103.67 92.32 103.71 92.25L103.52 92.08L103.59 92.01C103.59 92.01 103.66 92.01 103.68 92.01L103.59 91.81L103.73 91.7L103.63 91.6C103.648 91.4287 103.675 91.2585 103.71 91.09C103.889 91.051 104.075 91.0833 104.23 91.18C104.314 91.226 104.401 91.2661 104.49 91.3C104.626 91.3601 104.766 91.4069 104.91 91.44C105.12 91.4885 105.335 91.512 105.55 91.51C105.55 91.51 105.55 91.51 105.65 91.45H105.53C105.43 91.4272 105.333 91.3937 105.24 91.35L105.07 91.26L104.68 91.05C104.545 90.9893 104.431 90.8889 104.355 90.7621C104.278 90.6353 104.241 90.488 104.25 90.34C104.252 90.2029 104.279 90.0672 104.33 89.94V89.75C104.33 89.75 104.27 89.75 104.26 89.8L104.17 90C104.084 90.1644 104.057 90.3534 104.093 90.5355C104.13 90.7175 104.227 90.8815 104.37 91L104.65 91.22C104.59 91.2238 104.53 91.2238 104.47 91.22C104.3 91.1556 104.153 91.0404 104.05 90.89C103.812 90.5111 103.7 90.0665 103.73 89.62C103.73 88.7 103.82 87.77 103.86 86.85C103.9 85.93 104.02 84.85 104.09 83.85C104.128 83.3854 104.215 82.926 104.35 82.48C104.45 82.12 104.54 81.76 104.62 81.4C104.67 81.23 104.7 81.05 104.74 80.87C104.808 80.5073 104.912 80.1523 105.05 79.81C105.05 79.74 105.14 79.67 105.05 79.59C104.833 79.894 104.667 80.2319 104.56 80.59C104.511 80.7767 104.451 80.9603 104.38 81.14C104.188 81.5759 104.034 82.0276 103.92 82.49C103.76 83.17 103.62 83.86 103.47 84.49C103.46 84.5596 103.46 84.6304 103.47 84.7C103.488 84.7322 103.497 84.7683 103.497 84.805C103.497 84.8417 103.488 84.8778 103.47 84.91C103.47 85.05 103.47 85.2 103.47 85.34L103.29 87.07C103.29 87.4 103.21 87.72 103.18 88.07C103.18 88.16 103.1 88.16 103.06 88.22C103.056 88.2398 103.056 88.2603 103.06 88.28C103.01 88.97 102.96 89.66 102.92 90.36C102.861 91.3644 102.656 92.3549 102.31 93.3C102.25 93.49 102.18 93.68 102.12 93.87C101.97 94.35 101.82 94.87 101.66 95.3V95.39C101.636 95.4897 101.583 95.5803 101.509 95.6512C101.434 95.722 101.341 95.7702 101.24 95.79C101.073 95.8297 100.902 95.8498 100.73 95.85C100.344 95.8364 99.9597 95.7929 99.5803 95.72H99.2803C99.2679 95.7204 99.2556 95.7179 99.2443 95.7127C99.233 95.7075 99.2231 95.6997 99.2153 95.69C99.2075 95.6803 99.2021 95.669 99.1995 95.6568C99.1969 95.6446 99.1972 95.632 99.2003 95.62C99.2003 95.62 99.2003 95.51 99.2703 95.5C99.3488 95.4689 99.4289 95.4421 99.5103 95.42C99.4408 95.4056 99.3736 95.3821 99.3103 95.35C99.3103 95.35 99.3103 95.35 99.3103 95.29L99.4903 95.15L99.4003 95.07C99.4003 94.93 99.5003 94.81 99.4503 94.67L99.5603 94.58L99.4603 94.47L99.5503 94.21C99.5503 94.21 99.5503 94.11 99.4503 94.12V94.24C99.367 94.635 99.2635 95.0256 99.1403 95.41L98.9303 96.14C98.9303 96.21 98.8803 96.28 98.9303 96.34C99.0832 96.291 99.2475 96.291 99.4003 96.34H99.6203C99.6803 96.34 99.7503 96.34 99.8103 96.34C99.5903 96.22 99.3103 96.29 99.0903 96.14C99.0903 96.05 99.1603 95.96 99.2003 95.88H99.5403L100.75 96C100.83 96 100.92 96 100.98 96.07C100.995 96.0799 101.013 96.0852 101.03 96.0852C101.048 96.0852 101.066 96.0799 101.08 96.07C101.195 96.0427 101.309 96.0093 101.42 95.97H101.55C101.374 96.3687 101.072 96.6988 100.69 96.91C100.484 97.0212 100.254 97.0793 100.02 97.0793C99.7864 97.0793 99.5561 97.0212 99.3503 96.91C99.297 96.886 99.2466 96.8558 99.2003 96.82C99.0325 96.6723 98.9004 96.4885 98.8138 96.2824C98.7272 96.0763 98.6884 95.8532 98.7003 95.63C98.7003 95.31 98.7003 94.98 98.7003 94.63C98.7003 94.28 98.7903 93.87 98.8203 93.49C98.8703 92.86 98.9203 92.23 98.9603 91.6C99.0003 90.97 99.0603 90.13 99.0603 89.4C99.0603 88.27 99.1603 87.14 99.2703 86C99.3803 84.86 99.4903 83.57 99.5203 82.35C99.5245 81.6429 99.6084 80.9384 99.7703 80.25V80.08C99.6368 80.3459 99.5393 80.6283 99.4803 80.92C99.4365 81.2069 99.3628 81.4885 99.2603 81.76C99.2216 81.5857 99.1982 81.4084 99.1903 81.23C99.1903 81.23 99.1303 81.23 99.1303 81.31C99.1253 81.4033 99.1253 81.4968 99.1303 81.59C99.1303 81.87 99.1303 82.15 99.1303 82.43C99.0703 83.43 98.9503 84.51 98.8203 85.54C98.6703 86.9 98.5803 88.27 98.5303 89.63C98.5303 90.23 98.4403 90.84 98.4003 91.45C98.4003 91.52 98.4003 91.6 98.3203 91.65C98.2403 91.7 98.3203 91.78 98.3203 91.85L98.1103 93.85V94.2C98.1103 94.2 98.1103 94.29 98.0503 94.31C98.0458 94.2735 98.0458 94.2365 98.0503 94.2C98.1003 93.43 98.1603 92.66 98.2603 91.89C98.2603 91.99 98.1903 92.09 98.1803 92.19L97.9103 94.58C97.9049 94.7043 97.867 94.825 97.8003 94.93H97.9203C97.9149 94.9631 97.9149 94.9969 97.9203 95.03C97.9306 95.0972 97.9186 95.1658 97.8861 95.2254C97.8535 95.285 97.8023 95.3323 97.7403 95.36C97.4128 95.5959 97.0236 95.7314 96.6203 95.75C96.4835 95.7668 96.3447 95.7501 96.2158 95.7014C96.0868 95.6526 95.9717 95.5732 95.8803 95.47L95.7803 95.4C95.6903 95.48 95.6803 95.49 95.6503 95.46L95.3703 95.22C95.3703 95.22 95.3703 95.22 95.3703 95.16H95.5203C95.5259 95.0868 95.5259 95.0132 95.5203 94.94C95.5203 94.82 95.4503 94.69 95.4203 94.56C95.2517 93.684 95.1979 92.7899 95.2603 91.9C95.2651 91.8168 95.2651 91.7333 95.2603 91.65C95.2508 91.5647 95.2583 91.4784 95.2823 91.396C95.3064 91.3136 95.3464 91.2368 95.4003 91.17H95.4703C95.5924 91.3103 95.7484 91.4171 95.9235 91.4802C96.0985 91.5432 96.2868 91.5603 96.4703 91.53C96.7703 91.4958 97.0616 91.4077 97.3303 91.27C97.3303 91.27 97.4203 91.27 97.4303 91.17L97.1403 91.23C96.8597 91.285 96.571 91.285 96.2903 91.23C96.0827 91.2049 95.8839 91.131 95.7102 91.0146C95.5364 90.8982 95.3926 90.7424 95.2903 90.56C95.1081 90.2101 95.0056 89.8242 94.9903 89.43C94.9903 88.72 94.9903 88 94.9903 87.29C94.9903 86.79 95.0403 86.29 95.0703 85.78C95.1006 84.8331 95.1807 83.8885 95.3103 82.95C95.3817 82.4834 95.4185 82.0121 95.4203 81.54C95.4201 81.2972 95.4503 81.0553 95.5103 80.82C95.655 80.2919 95.6755 79.7374 95.5703 79.2C95.5203 78.97 95.5003 78.73 95.4703 78.5C95.4205 78.2525 95.4205 77.9975 95.4703 77.75C95.4751 77.6667 95.4751 77.5833 95.4703 77.5C95.4703 77.5 95.4703 77.44 95.4203 77.41C95.4252 77.4398 95.4252 77.4702 95.4203 77.5C95.2797 77.8946 95.252 78.3206 95.3403 78.73C95.3403 78.92 95.4103 79.12 95.4403 79.31C95.4952 79.6075 95.4952 79.9125 95.4403 80.21C95.3903 80.45 95.3503 80.69 95.3003 80.93C95.3003 80.93 95.3003 81.02 95.2303 81.02C95.2303 80.68 95.1703 80.34 95.1203 80.02C95.0703 79.7 95.0003 79.42 94.9403 79.12H94.8903C94.7803 79.21 94.8403 79.36 94.7603 79.49C94.7473 79.4486 94.7305 79.4084 94.7103 79.37L94.4703 78.97C94.4703 78.97 94.4203 78.97 94.3803 78.97C94.3937 79.0276 94.4104 79.0844 94.4303 79.14C94.4804 79.3647 94.5472 79.5853 94.6303 79.8C94.7019 79.957 94.7394 80.1274 94.7403 80.3C94.7403 80.46 94.7403 80.63 94.7403 80.8C94.7403 81.36 94.7403 81.92 94.7403 82.49C94.7535 82.9606 94.7368 83.4316 94.6903 83.9C94.6903 84.26 94.6203 84.63 94.6003 85C94.5403 85.77 94.5003 86.55 94.4403 87.33C94.4057 88.1425 94.2918 88.9496 94.1003 89.74C94.0053 89.9947 94.0053 90.2753 94.1003 90.53C94.0551 90.556 94.018 90.5941 93.9933 90.6401C93.9685 90.686 93.9571 90.738 93.9603 90.79C93.9603 90.96 93.9603 91.12 93.9603 91.29C93.9638 91.4161 93.9434 91.5416 93.9003 91.66L93.0703 91.6C92.8203 91.6 92.7503 91.6 92.7003 91.93C92.7003 91.93 92.7003 91.99 92.7003 92.02C92.6533 92.5484 92.7684 93.0787 93.0303 93.54C93.0695 93.5162 93.1145 93.5035 93.1603 93.5035C93.2062 93.5035 93.2511 93.5162 93.2903 93.54C93.4203 93.61 93.5703 93.54 93.7203 93.39L93.4503 93.45C93.4027 93.46 93.3531 93.4523 93.3108 93.4284C93.2685 93.4045 93.2363 93.3659 93.2203 93.32C93.0399 92.8738 92.9351 92.4006 92.9103 91.92C92.8982 91.8606 92.8982 91.7994 92.9103 91.74C93.215 91.7194 93.521 91.7396 93.8203 91.8C93.8203 92.19 93.8203 92.56 93.9003 92.93C93.9071 93.2215 93.9339 93.5121 93.9803 93.8C94.0012 93.8861 93.9905 93.9769 93.9502 94.0558C93.9098 94.1348 93.8424 94.1966 93.7603 94.23C93.6686 94.2547 93.572 94.2547 93.4803 94.23C93.2873 94.1664 93.1238 94.0349 93.0203 93.86C92.8334 93.5518 92.7014 93.2134 92.6303 92.86C92.5603 92.53 92.5103 92.2 92.4603 91.86C92.413 91.5215 92.3394 91.1871 92.2403 90.86C92.1537 90.6133 92.0736 90.3534 92.0003 90.08C91.8903 89.6 91.7803 89.08 91.6903 88.62C91.6903 88.52 91.6203 88.41 91.6903 88.31C91.7603 88.21 91.6903 88.45 91.7903 88.46C91.89 88.4496 91.9906 88.4496 92.0903 88.46C92.3536 88.5449 92.637 88.5449 92.9003 88.46L92.9503 88.38C92.7653 88.4024 92.5776 88.3796 92.4034 88.3134C92.2292 88.2472 92.0737 88.1396 91.9503 88H91.9003C91.9003 88 91.9503 88 91.9703 88C92.1973 88.0866 92.4374 88.134 92.6803 88.14H92.8303L92.3603 87.91C92.1929 87.8343 92.0453 87.7209 91.9291 87.5786C91.8128 87.4364 91.7311 87.2692 91.6903 87.09C91.635 86.8832 91.5949 86.6727 91.5703 86.46C91.5855 86.2688 91.5546 86.0768 91.4803 85.9C91.4803 85.9 91.4803 85.9 91.4803 85.84C91.4803 85.78 91.4803 85.54 91.4103 85.4C91.3957 85.3503 91.3681 85.3054 91.3303 85.27C91.3002 85.3847 91.3002 85.5053 91.3303 85.62C91.3303 85.99 91.3803 86.36 91.4103 86.78C91.3329 86.6721 91.291 86.5428 91.2903 86.41C91.1603 85.53 91.0603 84.64 91.0003 83.73C91.0003 83.1 90.8903 82.48 90.8403 81.85C90.7903 81.22 90.7603 80.49 90.7203 79.8C90.7203 79.74 90.7203 79.65 90.7203 79.62C90.7203 79.76 90.7203 79.92 90.6503 80.07C90.5803 80.22 90.6503 80.19 90.5903 80.22C90.5854 80.1334 90.5854 80.0466 90.5903 79.96C90.5903 79.75 90.5903 79.54 90.5403 79.34C90.4903 79.14 90.4603 78.77 90.4103 78.49C90.3403 78.41 90.4103 78.32 90.4103 78.23V78.1H90.1803C90.0501 77.5512 89.8693 77.0155 89.6403 76.5C89.6403 76.7 89.6403 76.83 89.6403 76.96C89.6576 77.3601 89.7492 77.7534 89.9103 78.12C89.9522 78.2091 89.9824 78.3032 90.0003 78.4C90.0057 78.4599 90.0057 78.5201 90.0003 78.58C89.9503 78.48 89.9203 78.44 89.9003 78.39C89.8103 78.19 89.7303 77.97 89.6303 77.77C89.5303 77.57 89.5003 77.55 89.4403 77.44C89.1603 76.94 88.8903 76.44 88.6103 75.95C88.4203 75.6289 88.2532 75.2947 88.1103 74.95C88.1103 74.87 87.9903 74.82 88.0203 74.71C88.0503 74.6 87.9003 74.54 87.8903 74.44C87.8803 74.4074 87.8803 74.3726 87.8903 74.34L87.8103 74.2H87.8803C87.8103 74.05 87.7303 73.89 87.6603 73.73C87.5042 73.405 87.3673 73.0711 87.2503 72.73C87.1603 72.42 87.0503 72.12 86.9503 71.82L86.5603 70.61C86.1238 69.2985 85.7632 67.9629 85.4803 66.61C85.3803 66.14 85.2903 65.67 85.2203 65.19L84.6503 65.97C84.9436 67.5912 85.3309 69.1939 85.8103 70.77C85.9505 71.2711 86.1242 71.7622 86.3303 72.24C86.3303 72.24 86.3303 72.3 86.3303 72.33H86.2203C85.6504 72.329 85.0996 72.5351 84.6703 72.91C84.346 73.1402 84.0707 73.4325 83.8603 73.77C83.6493 74.0925 83.5436 74.4726 83.5579 74.8577C83.5723 75.2429 83.7059 75.6141 83.9403 75.92C84.1258 76.134 84.3586 76.3018 84.6203 76.41C85.0003 76.57 85.3803 76.72 85.7503 76.89C85.8585 76.9333 85.9623 76.9869 86.0603 77.05C86.1399 77.0942 86.2137 77.1479 86.2803 77.21L86.1903 77.32C85.9121 77.6218 85.6735 77.9579 85.4803 78.32C85.1669 78.8614 85.0305 79.4872 85.0903 80.11C85.1033 80.3731 85.1735 80.6303 85.2962 80.8635C85.4188 81.0966 85.5909 81.3002 85.8003 81.46C86.1529 81.6995 86.5748 81.8156 87.0003 81.79H87.4503L86.8003 82.79C86.5228 83.1677 86.3914 83.633 86.4303 84.1C86.4254 84.1533 86.4254 84.2068 86.4303 84.26C86.4481 84.5397 86.5327 84.811 86.6772 85.0511C86.8216 85.2913 87.0216 85.4933 87.2603 85.64C87.4213 85.7412 87.611 85.7869 87.8003 85.77C87.9603 85.77 88.1303 85.77 88.2903 85.72C88.5792 85.6779 88.8739 85.7305 89.1303 85.87C89.6648 86.159 90.1733 86.4936 90.6503 86.87C90.7595 86.938 90.8383 87.0454 90.8703 87.17L90.6903 87.3C90.3382 87.5276 90.0039 87.7817 89.6903 88.06C89.5199 88.2115 89.3843 88.3981 89.2928 88.607C89.2013 88.8159 89.1561 89.042 89.1603 89.27C89.1358 89.7866 89.2992 90.2946 89.6203 90.7C89.7264 90.8624 89.8774 90.9905 90.0549 91.0687C90.2325 91.1468 90.4289 91.1716 90.6203 91.14L91.1303 91.03L91.6503 90.89C91.7386 90.9628 91.7958 91.0665 91.8103 91.18C91.9603 91.74 92.1203 92.29 92.2703 92.85C92.3802 93.243 92.5345 93.6221 92.7303 93.98C92.8794 94.2381 93.0976 94.4493 93.3603 94.59C93.4534 94.6305 93.5507 94.6606 93.6503 94.68C93.7921 94.69 93.9335 94.656 94.0552 94.5826C94.1769 94.5093 94.273 94.4001 94.3303 94.27C94.3303 94.21 94.3303 94.11 94.4403 94.09C94.5503 94.07 94.4403 94.09 94.4403 94.17C94.4832 94.4398 94.5535 94.7046 94.6503 94.96C94.7593 95.3167 94.9759 95.631 95.2703 95.86C95.591 96.0986 95.9757 96.2356 96.375 96.2534C96.7742 96.2712 97.1697 96.1691 97.5103 95.96L97.7503 95.82C97.8203 95.82 97.8703 95.69 97.9703 95.66L98.1603 96.31C98.2331 96.5966 98.3885 96.8556 98.6072 97.0547C98.8258 97.2538 99.0982 97.3843 99.3903 97.43H99.4703C99.8067 97.4823 100.151 97.4479 100.47 97.33C100.878 97.1772 101.227 96.9011 101.47 96.54C101.625 96.3369 101.758 96.1192 101.87 95.89L101.95 95.81C101.944 95.9266 101.944 96.0434 101.95 96.16C101.94 96.2497 101.94 96.3403 101.95 96.43C102.076 96.8349 102.254 97.2216 102.48 97.58C102.588 97.7508 102.735 97.8934 102.909 97.996C103.083 98.0986 103.279 98.1582 103.48 98.17C103.759 98.1897 104.038 98.147 104.297 98.0449C104.557 97.9428 104.79 97.784 104.98 97.58L105.22 97.34L105.44 97.07C105.497 97.0853 105.551 97.1089 105.6 97.14C105.78 97.22 105.95 97.32 106.13 97.39L108.38 98.26L108.67 97.87L108.33 97.76C107.897 97.6267 107.477 97.4767 107.07 97.31C106.876 97.2498 106.696 97.1512 106.54 97.02L106.76 96.82C106.76 96.88 106.76 96.92 106.76 96.96L106.94 96.88C106.94 96.98 106.89 97.06 106.87 97.15C106.85 97.24 107 97.05 107.05 97.01C107.1 96.97 107.11 97.01 107.14 97.01C107.17 97.01 107.06 97.16 107.14 97.24C107.22 97.32 107.26 97.07 107.39 97.07C107.52 97.07 107.39 97.2 107.39 97.28L107.56 97.14C107.64 97.14 107.63 97.27 107.74 97.21C107.85 97.15 107.83 97.32 107.91 97.21C107.99 97.1 107.91 97.21 107.97 97.21V97.39L108.18 97.25L108.34 97.37C108.34 97.37 108.34 97.37 108.39 97.37C108.44 97.37 108.53 97.37 108.59 97.46C108.65 97.55 108.72 97.46 108.78 97.46L108.96 97.52L109.24 97.15L108.98 97.06C108.54 96.91 108.1 96.75 107.67 96.58C107.49 96.51 107.32 96.4 107.14 96.31C107.113 96.297 107.092 96.2744 107.081 96.2466C107.07 96.2189 107.07 96.188 107.08 96.16C107.08 96.16 106.99 96.22 106.95 96.16C106.91 96.1 107.2 95.8 107.32 95.58H107.23L107.06 95.8C106.98 95.92 106.96 95.93 106.76 95.99C106.866 95.8098 106.983 95.6362 107.11 95.47C106.98 95.37 106.98 95.37 106.74 95.47C106.868 95.3189 107.02 95.1904 107.19 95.09C107.07 95.09 107.01 95.09 106.93 95.17H106.82C106.859 95.0867 106.918 95.0142 106.991 94.9584C107.064 94.9027 107.15 94.8655 107.24 94.85C107.222 94.8345 107.199 94.826 107.175 94.826C107.151 94.826 107.128 94.8345 107.11 94.85C107.023 94.9071 106.924 94.9446 106.82 94.96C106.82 94.85 106.98 94.82 107 94.7H106.88C106.876 94.6234 106.876 94.5466 106.88 94.47L107.21 94.3C107.21 94.23 107.12 94.3 107.07 94.3C107.02 94.3 106.89 94.39 106.77 94.36L107 94.08L106.9 93.98C106.895 93.9709 106.892 93.9605 106.892 93.95C106.892 93.9395 106.895 93.9291 106.9 93.92C106.918 93.8829 106.941 93.8491 106.97 93.82L107.11 93.71L106.94 93.65L107.16 93.51L107.01 93.4C107.13 93.32 107.24 93.22 107.34 93.14H107.08C107.091 93.1038 107.108 93.0699 107.13 93.04C107.204 92.9531 107.288 92.8757 107.38 92.81C107.581 92.6747 107.76 92.5094 107.91 92.32C107.728 92.5053 107.501 92.6398 107.25 92.71L107.63 92.34C107.94 92.05 107.94 92.05 107.98 91.92C107.83 92 107.71 92.15 107.49 92.18C107.71 92.01 107.89 91.88 108.06 91.73C108.23 91.58 108.37 91.4 108.53 91.24C108.488 91.2582 108.451 91.2855 108.42 91.32C108.102 91.6506 107.712 91.9038 107.28 92.06H107.22C107.215 92.0135 107.215 91.9665 107.22 91.92C107.215 91.8835 107.215 91.8465 107.22 91.81C107.512 91.7758 107.789 91.6654 108.024 91.4898C108.26 91.3142 108.445 91.0797 108.56 90.81L108.24 91.12C108.152 91.2053 108.058 91.2854 107.96 91.36C107.859 91.4396 107.748 91.5068 107.63 91.56C107.522 91.6294 107.398 91.6707 107.27 91.68C107.27 91.52 107.27 91.39 107.33 91.25C107.39 91.11 107.33 90.96 107.4 90.81L107.46 90.41C107.46 90.26 107.46 90.11 107.46 89.96C107.46 89.81 107.46 89.69 107.46 89.56C107.46 89.43 107.46 89.26 107.46 89.12C107.46 88.98 107.46 88.84 107.46 88.71C107.46 88.58 107.46 88.42 107.46 88.27C107.436 88.1277 107.436 87.9823 107.46 87.84L107.55 87.97C107.7 88.2336 107.889 88.473 108.11 88.68L108.5 89.05C108.835 89.3634 109.204 89.6384 109.6 89.87C110.061 90.12 110.556 90.2987 111.07 90.4C111.671 90.5368 112.298 90.5022 112.88 90.3C113.4 90.12 113.88 89.9 114.43 89.77C114.457 89.7496 114.478 89.7218 114.49 89.69C114.49 89.69 114.9 89.37 114.88 89.38ZM92.1603 87.96L92.0003 87.8C92.0903 87.83 92.1203 87.89 92.1603 87.96ZM85.1103 76.08C84.8921 75.9861 84.6923 75.854 84.5203 75.69L84.4403 75.59V75.52C84.781 75.3381 85.0569 75.0551 85.2303 74.71C85.441 74.3534 85.6025 73.9699 85.7103 73.57C85.7703 73.3677 85.7703 73.1523 85.7103 72.95C85.7103 72.89 85.6603 72.85 85.5903 72.89C85.6088 73.2371 85.5328 73.5827 85.3703 73.89C85.1486 74.3919 84.833 74.8468 84.4403 75.23L84.3303 75.31C84.3303 75.25 84.2403 75.21 84.2303 75.14C84.2203 75.07 84.1503 74.7 84.1303 74.47C84.1188 74.2892 84.176 74.1106 84.2903 73.97C84.3684 73.8567 84.4553 73.7496 84.5503 73.65C84.6679 73.5336 84.7781 73.4101 84.8803 73.28L84.5503 73.51C84.5503 73.45 84.5503 73.43 84.5503 73.4C84.6861 73.2467 84.8446 73.1152 85.0203 73.01L85.5703 72.69C85.8052 72.5715 86.068 72.5197 86.3303 72.54C86.3827 72.5256 86.438 72.5256 86.4903 72.54C86.6403 72.54 86.6803 72.68 86.6203 72.87C86.6139 72.9703 86.6347 73.0705 86.6803 73.16C86.7195 73.2157 86.7405 73.282 86.7405 73.35C86.7405 73.4181 86.7195 73.4844 86.6803 73.54C86.6411 73.6001 86.6076 73.6637 86.5803 73.73C86.5803 73.73 86.5803 73.79 86.5803 73.82C86.5803 73.85 86.7003 73.55 86.8603 73.48C86.8603 73.63 86.7703 73.75 86.7503 73.92L87.0103 73.71C86.8907 74.0914 86.7332 74.4599 86.5403 74.81C86.5403 74.81 86.6003 74.81 86.6103 74.75C86.6292 74.7248 86.6459 74.698 86.6603 74.67C86.6768 74.6397 86.6996 74.6132 86.7272 74.5925C86.7548 74.5718 86.7866 74.5573 86.8203 74.55C86.8094 74.4125 86.8524 74.2762 86.9403 74.17C86.9917 74.09 87.0521 74.0162 87.1203 73.95C87.1203 74.02 87.0703 74.08 87.0503 74.15C87.0372 74.1992 87.0372 74.2509 87.0503 74.3C87.0742 74.3392 87.0868 74.3841 87.0868 74.43C87.0868 74.4758 87.0742 74.5208 87.0503 74.56C87.0142 74.6006 86.9869 74.6483 86.9703 74.7C86.8741 74.8897 86.7938 75.087 86.7303 75.29C86.7701 75.2459 86.8068 75.1991 86.8403 75.15C86.8958 75.0877 86.946 75.0208 86.9903 74.95L87.1203 74.77C87.1588 74.7042 87.2098 74.6465 87.2703 74.6C87.2761 74.6365 87.2761 74.6736 87.2703 74.71C87.1039 75.0906 86.8585 75.4315 86.5503 75.71L86.2903 75.94C86.2319 75.9991 86.1965 76.0772 86.1903 76.16C86.1859 76.1899 86.1859 76.2202 86.1903 76.25C86.2851 76.1972 86.3618 76.117 86.4103 76.02C86.5095 75.7779 86.6805 75.572 86.9003 75.43C86.9603 75.43 87.0203 75.32 87.0903 75.28L86.9803 75.39C86.8564 75.6561 86.6755 75.8917 86.4503 76.08C86.4003 76.08 86.3803 76.22 86.3403 76.29C86.3003 76.36 86.4203 76.35 86.4703 76.29C86.571 76.2006 86.6527 76.0918 86.7103 75.97C86.7465 75.8947 86.7865 75.8212 86.8303 75.75C86.8883 75.6754 86.9519 75.6052 87.0203 75.54C87.0703 75.54 87.0203 75.64 87.0203 75.68C86.9695 75.7703 86.9127 75.8572 86.8503 75.94C86.786 76.0375 86.7159 76.131 86.6403 76.22C86.5603 76.33 86.5603 76.33 86.5603 76.5C86.0403 76.44 85.5603 76.28 85.1103 76.08ZM87.2303 81.16C87.0258 81.2222 86.8079 81.2261 86.6012 81.1714C86.3946 81.1166 86.2072 81.0054 86.0603 80.85C85.9285 80.7294 85.8347 80.5731 85.7903 80.4C85.6517 79.9373 85.6693 79.4418 85.8403 78.99C86.0028 78.5217 86.2282 78.0776 86.5103 77.67C86.6344 77.4912 86.8135 77.3578 87.0203 77.29C87.0707 77.2697 87.1247 77.26 87.179 77.2617C87.2333 77.2634 87.2866 77.2765 87.3356 77.3C87.3845 77.3236 87.428 77.3571 87.4633 77.3984C87.4985 77.4398 87.5248 77.488 87.5403 77.54C87.6268 77.7977 87.6441 78.0736 87.5903 78.34C87.5643 78.472 87.5476 78.6056 87.5403 78.74C87.7064 78.4556 87.7863 78.129 87.7703 77.8C87.7801 77.6584 87.753 77.5167 87.6917 77.3888C87.6303 77.2608 87.5368 77.151 87.4203 77.07C87.4203 76.97 87.4903 76.97 87.5303 76.95L88.1603 76.69L88.3803 76.63C88.2803 76.93 88.2303 76.96 87.9703 76.94H87.8903L87.7703 77.01L87.9003 77.18L88.3803 77.09L88.2303 77.24C88.2303 77.3 88.2303 77.33 88.3303 77.3L88.5203 77.23C88.5203 77.23 88.5203 77.23 88.5803 77.23L88.3303 77.58C88.3449 77.6112 88.3616 77.6412 88.3803 77.67C88.3803 77.67 88.4703 77.67 88.5103 77.67L88.6503 77.58C88.7203 77.58 88.7303 77.65 88.7103 77.71C88.6903 77.77 88.7103 77.84 88.6503 77.93C88.5903 78.02 88.7703 77.84 88.8403 77.83C88.9103 77.82 88.8403 77.94 88.8403 77.99C88.8403 78.04 89.0103 77.99 88.9603 78.12C88.9992 78.1725 89.0263 78.2326 89.0401 78.2964C89.0539 78.3602 89.054 78.4262 89.0403 78.49L89.2103 78.42L89.1503 78.69H89.2603C89.2603 78.91 89.0803 79.09 89.0903 79.31L89.2003 79.13C89.2003 79.28 89.2003 79.43 89.2003 79.58C89.2176 79.5337 89.2412 79.4899 89.2703 79.45L89.1803 79.56C89.0503 79.65 89.0203 79.81 88.9403 79.94C88.8603 80.07 88.9403 79.94 88.9403 80L89.0003 79.94C89.0485 79.8662 89.0919 79.7894 89.1303 79.71C89.1303 79.85 89.1303 79.85 89.0003 79.94C88.9949 80.0682 88.9413 80.1896 88.8503 80.28L88.6003 80.55L88.9803 80.34C88.8725 80.5115 88.7257 80.6552 88.552 80.7595C88.3782 80.8637 88.1824 80.9255 87.9803 80.94C87.7211 80.9972 87.4693 81.0844 87.2303 81.2V81.16ZM88.0403 85.2C87.7984 85.184 87.5687 85.0878 87.3876 84.9266C87.2065 84.7654 87.0843 84.5484 87.0403 84.31C87.0307 84.2303 87.0307 84.1497 87.0403 84.07C87.0308 84.0104 87.0308 83.9496 87.0403 83.89C87.077 83.5165 87.1929 83.1552 87.3803 82.83C87.4703 82.63 87.4803 82.64 87.6503 82.52V82.42C87.75 82.3705 87.8308 82.2897 87.8803 82.19C88.0024 81.9583 88.1857 81.7646 88.4103 81.63C88.6768 81.453 88.954 81.2927 89.2403 81.15L89.6503 81.01C89.6503 81.09 89.7003 81.17 89.7903 81.17C89.8803 81.17 89.7903 81.17 89.7903 81.23L89.5703 81.44C89.6403 81.5 89.6803 81.44 89.7303 81.44C89.7803 81.44 89.9403 81.44 89.9903 81.49C90.0252 81.5341 90.0442 81.5888 90.0442 81.645C90.0442 81.7013 90.0252 81.7559 89.9903 81.8C89.9946 81.8164 89.9946 81.8336 89.9903 81.85C90.1803 81.79 90.1803 81.79 90.2203 82.08C90.1603 82.19 90.0803 82.3 90.0003 82.42C90.1403 82.42 90.1603 82.19 90.3103 82.3C90.2487 82.4205 90.175 82.5344 90.0903 82.64C90.1703 82.64 90.2303 82.52 90.3303 82.64C90.2503 82.77 90.1603 82.89 90.0503 83.04C90.1903 83.04 90.2403 82.86 90.3703 82.88C90.3203 83.06 90.1403 83.17 90.1003 83.38C90.2403 83.32 90.2603 83.14 90.4103 83.13C90.3183 83.3299 90.2079 83.5207 90.0803 83.7C90.1403 83.7 90.1603 83.7 90.2003 83.7L90.2803 83.62C90.3303 83.68 90.2803 83.72 90.2803 83.77C90.0956 84.0228 89.9443 84.2984 89.8303 84.59C89.9224 84.4636 90.0226 84.3434 90.1303 84.23C90.2503 84.13 90.2703 83.94 90.4503 83.83C90.3207 84.1417 90.1342 84.4265 89.9003 84.67H90.0103C90.0773 84.6263 90.1519 84.5958 90.2303 84.58L90.0903 84.72L89.9303 84.85C89.9352 84.8999 89.9352 84.9501 89.9303 85C89.6776 85.207 89.3663 85.3294 89.0403 85.35C88.6603 85.2 88.3603 85.2 88.0403 85.2ZM90.3003 83.33C90.3023 83.3599 90.2946 83.3897 90.2784 83.4149C90.2622 83.4401 90.2383 83.4594 90.2103 83.47C90.2376 83.4078 90.2747 83.3504 90.3203 83.3L90.3003 83.33ZM90.0903 84.69C90.0903 84.69 90.0903 84.63 90.0903 84.61C90.0903 84.59 90.0903 84.61 90.1603 84.61V84.68L90.0903 84.69ZM90.4203 85.92C90.3783 85.9353 90.3323 85.9353 90.2903 85.92L89.2903 85.45L89.7803 85.31C89.8503 85.31 89.9203 85.31 89.9803 85.31C90.0403 85.31 90.0903 85.31 90.1403 85.31H90.3303V85.45L90.5303 85.64C90.5323 85.7316 90.5002 85.8207 90.4403 85.89L90.4203 85.92ZM90.7903 80.36C90.7939 80.3067 90.7939 80.2533 90.7903 80.2C90.8603 80.2 90.8603 80.2 90.8003 80.33L90.7903 80.36ZM90.7903 87.85C90.8025 87.843 90.8163 87.8393 90.8303 87.8393C90.8444 87.8393 90.8581 87.843 90.8703 87.85C90.8703 87.85 90.9203 87.85 90.9503 87.92C91.0707 88.1 91.1587 88.2997 91.2103 88.51V88.56L90.8103 87.93C90.7948 87.9165 90.7852 87.8975 90.7833 87.877C90.7814 87.8565 90.7875 87.8361 90.8003 87.82L90.7903 87.85ZM91.5703 90.42C91.4117 90.5034 91.2481 90.5769 91.0803 90.64C90.9447 90.6968 90.7952 90.712 90.6509 90.6835C90.5067 90.655 90.3742 90.5842 90.2703 90.48C90.2414 90.4234 90.2211 90.3627 90.2103 90.3C90.1503 90.3 90.0503 90.25 90.0003 90.18C89.9431 90.0851 89.9057 89.9797 89.8903 89.87C89.8302 89.4991 89.8302 89.1209 89.8903 88.75C89.9042 88.6545 89.9276 88.5608 89.9603 88.47C89.9801 88.4093 90.0144 88.3543 90.0603 88.31C90.2361 88.1767 90.4318 88.0721 90.6403 88C90.8801 88.2406 91.0644 88.5307 91.1803 88.85C91.2506 89.0439 91.2506 89.2562 91.1803 89.45C91.1803 89.53 91.1803 89.61 91.1203 89.72C91.2203 89.66 91.2203 89.57 91.2503 89.49C91.2839 89.4022 91.3106 89.312 91.3303 89.22C91.3625 89.3072 91.3625 89.4029 91.3303 89.49C91.3351 89.5632 91.3351 89.6368 91.3303 89.71C91.3101 89.8084 91.2834 89.9052 91.2503 90L91.5203 89.74C91.4837 89.9688 91.4058 90.1891 91.2903 90.39C91.4103 90.45 91.4903 90.39 91.5903 90.32C91.6903 90.25 91.5903 90.37 91.5603 90.39L91.5703 90.42ZM94.2503 91.79C94.3003 91.73 94.3403 91.79 94.3503 91.79C94.4004 92.0409 94.4004 92.2991 94.3503 92.55C94.3503 92.55 94.3503 92.55 94.3503 92.48L94.2503 91.79ZM94.3703 93.27C94.3253 93.0456 94.3253 92.8145 94.3703 92.59C94.3855 92.8131 94.3855 93.0369 94.3703 93.26V93.27ZM94.4203 91.35C94.4104 91.3209 94.4104 91.2892 94.4203 91.26C94.4248 91.2865 94.4248 91.3135 94.4203 91.34C94.4161 91.3339 94.4127 91.3271 94.4103 91.32L94.4203 91.35ZM98.2203 94.62C98.1695 94.4881 98.1695 94.342 98.2203 94.21C98.2203 94.21 98.2203 94.21 98.2203 94.27C98.2203 94.33 98.2203 94.44 98.2103 94.59L98.2203 94.62ZM106.92 96.91C106.81 96.91 106.75 96.81 106.63 96.85C106.625 96.7668 106.625 96.6833 106.63 96.6L106.5 96.7L106.17 96.57L106.37 96.26C106.49 96.26 106.42 96.41 106.44 96.49H106.49C106.56 96.41 106.63 96.43 106.71 96.49C106.79 96.55 106.71 96.66 106.71 96.77L106.91 96.62C107.04 96.69 106.9 96.78 106.91 96.88L106.92 96.91ZM110.89 89.43C110.222 89.2044 109.608 88.8397 109.09 88.36C108.801 88.11 108.549 87.8205 108.34 87.5C108.867 88.0574 109.465 88.5417 110.12 88.94C110.37 89.09 110.63 89.21 110.88 89.34L110.98 89.42C110.98 89.42 110.91 89.41 110.88 89.4L110.89 89.43Z" fill="white"/>
<path d="M126.85 108.56V108.58L126.84 108.56H126.85Z" fill="white"/>
<path d="M104.21 83.68C104.247 83.2153 104.334 82.756 104.47 82.31C104.57 81.95 104.66 81.59 104.74 81.23C104.79 81.06 104.82 80.88 104.86 80.7C104.928 80.3373 105.032 79.9823 105.17 79.64C105.17 79.57 105.26 79.5 105.17 79.42C104.952 79.7239 104.787 80.0619 104.68 80.42C104.631 80.6066 104.57 80.7903 104.5 80.97C104.308 81.4059 104.154 81.8576 104.04 82.32C103.88 83 103.74 83.69 103.59 84.32C103.58 84.3897 103.58 84.4604 103.59 84.53C103.607 84.5623 103.617 84.5983 103.617 84.635C103.617 84.6717 103.607 84.7078 103.59 84.74C103.59 84.88 103.59 85.03 103.59 85.17L103.41 86.9C103.41 87.23 103.33 87.55 103.3 87.9C103.3 87.99 103.22 87.99 103.18 88.05C103.175 88.0697 103.175 88.0903 103.18 88.11C103.13 88.8 103.08 89.49 103.04 90.19C102.981 91.1945 102.775 92.1849 102.43 93.13C102.37 93.32 102.3 93.51 102.24 93.7C102.09 94.18 101.94 94.7 101.78 95.13V95.22C101.755 95.3198 101.703 95.4103 101.628 95.4812C101.554 95.5521 101.461 95.6002 101.36 95.62C101.193 95.6597 101.022 95.6798 100.85 95.68C100.464 95.6663 100.079 95.6229 99.7 95.55H99.4C99.3876 95.5504 99.3752 95.5479 99.3639 95.5427C99.3527 95.5375 99.3427 95.5297 99.335 95.52C99.3272 95.5103 99.3218 95.499 99.3192 95.4868C99.3166 95.4747 99.3169 95.462 99.32 95.45C99.32 95.45 99.32 95.34 99.39 95.33C99.4684 95.2989 99.5486 95.2721 99.63 95.25C99.5605 95.2356 99.4933 95.2121 99.43 95.18C99.43 95.18 99.43 95.18 99.43 95.12L99.61 94.98L99.52 94.9C99.52 94.76 99.62 94.64 99.57 94.5L99.68 94.41L99.58 94.3L99.67 94.04C99.67 94.04 99.67 93.94 99.57 93.95V94.07C99.4867 94.465 99.3832 94.8555 99.26 95.24L99.05 95.97C99.05 96.04 99 96.11 99.05 96.17C99.2028 96.121 99.3672 96.121 99.52 96.17H99.74C99.8 96.17 99.87 96.17 99.93 96.17C99.71 96.05 99.43 96.12 99.21 95.97C99.21 95.88 99.28 95.79 99.32 95.71H99.66L100.87 95.83C100.95 95.83 101.04 95.83 101.1 95.9C101.115 95.9099 101.132 95.9152 101.15 95.9152C101.168 95.9152 101.185 95.9099 101.2 95.9C101.315 95.8727 101.428 95.8393 101.54 95.8H101.67C101.493 96.1987 101.191 96.5288 100.81 96.74C100.604 96.8511 100.374 96.9094 100.14 96.9094C99.9061 96.9094 99.6758 96.8511 99.47 96.74C99.4166 96.7159 99.3663 96.6858 99.32 96.65C99.1522 96.5023 99.02 96.3185 98.9334 96.1124C98.8468 95.9063 98.808 95.6833 98.82 95.46C98.82 95.14 98.82 94.81 98.82 94.46C98.82 94.11 98.91 93.7 98.94 93.32C98.99 92.69 99.04 92.06 99.08 91.43C99.12 90.8 99.18 89.96 99.18 89.23C99.18 88.1 99.28 86.97 99.39 85.83C99.5 84.69 99.61 83.4 99.64 82.18C99.6442 81.4728 99.728 80.7684 99.89 80.08V79.91C99.7565 80.1759 99.6589 80.4584 99.6 80.75C99.5562 81.0369 99.4824 81.3185 99.38 81.59C99.3413 81.4157 99.3179 81.2384 99.31 81.06C99.31 81.06 99.25 81.06 99.25 81.14C99.245 81.2333 99.245 81.3267 99.25 81.42C99.25 81.7 99.25 81.98 99.25 82.26C99.19 83.26 99.07 84.34 98.94 85.37C98.79 86.73 98.7 88.1 98.65 89.46C98.65 90.06 98.56 90.67 98.52 91.28C98.52 91.35 98.52 91.43 98.44 91.48C98.36 91.53 98.44 91.61 98.44 91.68L98.23 93.68V94.03C98.23 94.03 98.23 94.12 98.17 94.14C98.1655 94.1035 98.1655 94.0666 98.17 94.03C98.22 93.26 98.28 92.49 98.38 91.72C98.38 91.82 98.31 91.92 98.3 92.02L98.03 94.41C98.0246 94.5343 97.9867 94.655 97.92 94.76H98.04C98.0346 94.7931 98.0346 94.8269 98.04 94.86C98.0503 94.9271 98.0382 94.9958 98.0057 95.0554C97.9732 95.115 97.922 95.1623 97.86 95.19C97.5324 95.4259 97.1433 95.5615 96.74 95.58C96.6032 95.5968 96.4644 95.5802 96.3354 95.5314C96.2065 95.4826 96.0914 95.4032 96 95.3L95.9 95.23C95.81 95.31 95.8 95.32 95.77 95.29L95.49 95.05C95.49 95.05 95.49 95.05 95.49 94.99H95.64C95.6455 94.9168 95.6455 94.8432 95.64 94.77C95.64 94.65 95.57 94.52 95.54 94.39C95.3714 93.5141 95.3176 92.6199 95.38 91.73C95.3848 91.6468 95.3848 91.5633 95.38 91.48C95.3705 91.3948 95.378 91.3084 95.402 91.226C95.426 91.1436 95.4661 91.0668 95.52 91H95.59C95.7121 91.1404 95.8681 91.2472 96.0431 91.3102C96.2182 91.3732 96.4064 91.3903 96.59 91.36C96.89 91.3257 97.1813 91.2377 97.45 91.1C97.45 91.1 97.54 91.1 97.55 91L97.26 91.06C96.9793 91.115 96.6907 91.115 96.41 91.06C96.2024 91.0348 96.0036 90.961 95.8299 90.8446C95.6561 90.7282 95.5123 90.5725 95.41 90.39C95.2277 90.0401 95.1253 89.6542 95.11 89.26C95.11 88.55 95.11 87.83 95.11 87.12C95.11 86.62 95.16 86.12 95.19 85.61C95.2203 84.6631 95.3004 83.7185 95.43 82.78C95.5014 82.3134 95.5382 81.8421 95.54 81.37C95.5397 81.1272 95.57 80.8853 95.63 80.65C95.7747 80.1219 95.7952 79.5674 95.69 79.03C95.64 78.8 95.62 78.56 95.59 78.33C95.5401 78.0825 95.5401 77.8275 95.59 77.58C95.5948 77.4968 95.5948 77.4133 95.59 77.33C95.59 77.33 95.59 77.27 95.54 77.24C95.5448 77.2698 95.5448 77.3002 95.54 77.33C95.3994 77.7246 95.3717 78.1505 95.46 78.56C95.46 78.75 95.53 78.95 95.56 79.14C95.6149 79.4375 95.6149 79.7425 95.56 80.04C95.51 80.28 95.47 80.52 95.42 80.76C95.42 80.76 95.42 80.85 95.35 80.85C95.35 80.51 95.29 80.17 95.24 79.85C95.19 79.53 95.12 79.25 95.06 78.95H95.01C94.9 79.04 94.96 79.19 94.88 79.32C94.8669 79.2786 94.8502 79.2384 94.83 79.2L94.59 78.8C94.59 78.8 94.54 78.8 94.5 78.8C94.5134 78.8576 94.5301 78.9144 94.55 78.97C94.6001 79.1947 94.6669 79.4153 94.75 79.63C94.8216 79.787 94.8591 79.9574 94.86 80.13C94.86 80.29 94.86 80.46 94.86 80.63C94.86 81.19 94.86 81.75 94.86 82.32C94.8731 82.7906 94.8564 83.2616 94.81 83.73C94.81 84.09 94.74 84.46 94.72 84.83C94.66 85.6 94.62 86.38 94.56 87.16C94.5254 87.9725 94.4115 88.7797 94.22 89.57C94.1249 89.8248 94.1249 90.1052 94.22 90.36C94.1747 90.386 94.1377 90.4241 94.1129 90.47C94.0882 90.516 94.0768 90.5679 94.08 90.62C94.08 90.79 94.08 90.95 94.08 91.12C94.0835 91.246 94.0631 91.3715 94.02 91.49L93.19 91.43C92.94 91.43 92.87 91.43 92.82 91.76C92.82 91.76 92.82 91.82 92.82 91.85C92.773 92.3785 92.8881 92.9086 93.15 93.37C93.1891 93.3461 93.2341 93.3336 93.28 93.3336C93.3258 93.3336 93.3708 93.3461 93.41 93.37C93.54 93.44 93.69 93.37 93.84 93.22L93.57 93.28C93.5224 93.29 93.4728 93.2823 93.4305 93.2584C93.3881 93.2345 93.356 93.196 93.34 93.15C93.1596 92.7038 93.0548 92.2307 93.03 91.75C93.0179 91.6906 93.0179 91.6294 93.03 91.57C93.3346 91.5494 93.6407 91.5696 93.94 91.63C93.94 92.02 93.94 92.39 94.02 92.76C94.0268 93.0515 94.0535 93.3422 94.1 93.63C94.1209 93.7161 94.1102 93.8069 94.0698 93.8859C94.0295 93.9648 93.9621 94.0266 93.88 94.06C93.7883 94.0846 93.6917 94.0846 93.6 94.06C93.4069 93.9964 93.2435 93.8649 93.14 93.69C92.953 93.3818 92.821 93.0434 92.75 92.69C92.68 92.36 92.63 92.03 92.58 91.69C92.5326 91.3515 92.4591 91.0171 92.36 90.69C92.2733 90.4433 92.1933 90.1834 92.12 89.91C92.01 89.43 91.9 88.91 91.81 88.45C91.81 88.35 91.74 88.24 91.81 88.14C91.88 88.04 91.81 88.28 91.91 88.29C92.0097 88.2797 92.1103 88.2797 92.21 88.29C92.4733 88.3749 92.7567 88.3749 93.02 88.29L93.07 88.21C92.885 88.2324 92.6973 88.2096 92.5231 88.1434C92.3489 88.0772 92.1934 87.9696 92.07 87.83H92.02C92.02 87.83 92.07 87.83 92.09 87.83C92.317 87.9167 92.5571 87.964 92.8 87.97H92.95L92.48 87.74C92.3126 87.6643 92.165 87.5509 92.0488 87.4086C91.9325 87.2664 91.8508 87.0991 91.81 86.92C91.7546 86.7132 91.7145 86.5027 91.69 86.29C91.7052 86.0989 91.6743 85.9068 91.6 85.73C91.6 85.73 91.6 85.73 91.6 85.67C91.6 85.61 91.6 85.37 91.53 85.23C91.5154 85.1803 91.4878 85.1354 91.45 85.1C91.4199 85.2148 91.4199 85.3353 91.45 85.45C91.45 85.82 91.5 86.19 91.53 86.61C91.4526 86.5021 91.4106 86.3728 91.41 86.24C91.28 85.36 91.18 84.47 91.12 83.56C91.12 82.93 91.01 82.31 90.96 81.68C90.91 81.05 90.88 80.32 90.84 79.63C90.84 79.57 90.84 79.48 90.84 79.45C90.84 79.59 90.84 79.75 90.77 79.9C90.7 80.05 90.77 80.02 90.71 80.05C90.7051 79.9634 90.7051 79.8766 90.71 79.79C90.71 79.58 90.71 79.37 90.66 79.17C90.61 78.97 90.58 78.6 90.53 78.32C90.46 78.24 90.53 78.15 90.53 78.06V77.93H90.3C90.1698 77.3811 89.989 76.8455 89.76 76.33C89.76 76.53 89.76 76.66 89.76 76.79C89.7773 77.1901 89.8689 77.5834 90.03 77.95C90.0718 78.0391 90.1021 78.1332 90.12 78.23C90.1254 78.2899 90.1254 78.3502 90.12 78.41C90.07 78.31 90.04 78.27 90.02 78.22C89.93 78.02 89.85 77.8 89.75 77.6C89.65 77.4 89.62 77.38 89.56 77.27C89.28 76.77 89.01 76.27 88.73 75.78C88.5399 75.4589 88.3728 75.1248 88.23 74.78C88.23 74.7 88.11 74.65 88.14 74.54C88.17 74.43 88.02 74.37 88.01 74.27L87.01 75.62L86.3 76.62L86.14 76.83C86.2196 76.8742 86.2934 76.9279 86.36 76.99L86.27 77.1C85.9918 77.4018 85.7532 77.7379 85.56 78.1C85.2465 78.6414 85.1102 79.2673 85.17 79.89C85.183 80.1532 85.2532 80.4103 85.3758 80.6434C85.4985 80.8766 85.6705 81.0802 85.88 81.24C86.2326 81.4795 86.6545 81.5955 87.08 81.57H87.53L86.88 82.57C86.6025 82.9477 86.4711 83.413 86.51 83.88C86.505 83.9332 86.505 83.9868 86.51 84.04C86.5277 84.3197 86.6124 84.591 86.7568 84.8312C86.9013 85.0713 87.1012 85.2732 87.34 85.42C87.5009 85.5212 87.6906 85.5668 87.88 85.55C88.04 85.55 88.21 85.55 88.37 85.5C88.6588 85.4579 88.9536 85.5105 89.21 85.65C89.7445 85.939 90.253 86.2736 90.73 86.65C90.8392 86.718 90.918 86.8254 90.95 86.95L90.77 87.08C90.4179 87.3077 90.0836 87.5617 89.77 87.84C89.5996 87.9915 89.464 88.1781 89.3725 88.387C89.281 88.5958 89.2358 88.822 89.24 89.05C89.2155 89.5666 89.3789 90.0746 89.7 90.48C89.806 90.6425 89.957 90.7705 90.1346 90.8486C90.3122 90.9268 90.5086 90.9515 90.7 90.92L91.21 90.81L91.73 90.67C91.8183 90.7428 91.8755 90.8465 91.89 90.96C92.04 91.52 92.2 92.07 92.35 92.63C92.4598 93.023 92.6141 93.4021 92.81 93.76C92.9591 94.018 93.1773 94.2293 93.44 94.37C93.5331 94.4104 93.6304 94.4406 93.73 94.46C93.8718 94.47 94.0132 94.436 94.1349 94.3626C94.2566 94.2892 94.3527 94.18 94.41 94.05C94.41 93.99 94.41 93.89 94.52 93.87C94.63 93.85 94.52 93.87 94.52 93.95C94.5628 94.2198 94.6332 94.4845 94.73 94.74C94.839 95.0967 95.0555 95.4111 95.35 95.64C95.6706 95.8786 96.0554 96.0156 96.4547 96.0334C96.8539 96.0513 97.2494 95.949 97.59 95.74L97.83 95.6C97.9 95.6 97.95 95.47 98.05 95.44L98.24 96.09C98.3128 96.3766 98.4682 96.6356 98.6868 96.8347C98.9055 97.0338 99.1778 97.1643 99.47 97.21H99.55C99.8864 97.2623 100.231 97.2279 100.55 97.11L101.28 96.11L101.47 95.86V95.8L102.63 94.19C102.7 93.9 102.77 93.62 102.83 93.33C102.97 92.63 103.09 91.93 103.22 91.23C103.22 91.23 103.22 91.12 103.22 91.09L103.13 92.5L103.07 93.5L103.33 93.15L103.39 93.05V92.99C103.335 92.9105 103.3 92.8197 103.286 92.7243C103.272 92.629 103.28 92.5317 103.31 92.44H103.51L103.34 92.32C103.329 92.3089 103.32 92.2956 103.314 92.281C103.308 92.2664 103.305 92.2508 103.305 92.235C103.305 92.2192 103.308 92.2036 103.314 92.189C103.32 92.1744 103.329 92.1612 103.34 92.15C103.39 92.15 103.47 92.15 103.51 92.08L103.32 91.91L103.39 91.84C103.39 91.84 103.46 91.84 103.48 91.84L103.39 91.64L103.53 91.53L103.43 91.43C103.448 91.2587 103.474 91.0885 103.51 90.92C103.688 90.881 103.875 90.9133 104.03 91.01C104.114 91.056 104.201 91.0961 104.29 91.13C104.425 91.1901 104.566 91.237 104.71 91.27L104.87 91.04L104.48 90.83C104.345 90.7693 104.231 90.6689 104.154 90.5421C104.077 90.4152 104.041 90.268 104.05 90.12C104.051 89.9828 104.079 89.8472 104.13 89.72V89.53C104.13 89.53 104.07 89.53 104.06 89.58L103.97 89.78C103.884 89.9444 103.856 90.1334 103.893 90.3154C103.929 90.4975 104.027 90.6615 104.17 90.78L104.45 91C104.39 91.0038 104.33 91.0038 104.27 91C104.1 90.9356 103.953 90.8204 103.85 90.67C103.612 90.291 103.5 89.8465 103.53 89.4C103.53 88.48 103.62 87.55 103.66 86.63C103.7 85.71 104.14 84.68 104.21 83.68ZM87.21 81.16C87.0054 81.2222 86.7876 81.2261 86.5809 81.1714C86.3742 81.1166 86.1869 81.0054 86.04 80.85C85.9082 80.7294 85.8144 80.5731 85.77 80.4C85.6314 79.9373 85.649 79.4418 85.82 78.99C85.9825 78.5217 86.2079 78.0776 86.49 77.67C86.6141 77.4912 86.7932 77.3578 87 77.29C87.0503 77.2697 87.1044 77.26 87.1587 77.2617C87.213 77.2634 87.2663 77.2765 87.3153 77.3C87.3642 77.3236 87.4077 77.3571 87.443 77.3984C87.4782 77.4398 87.5045 77.488 87.52 77.54C87.6065 77.7977 87.6238 78.0736 87.57 78.34C87.544 78.472 87.5273 78.6056 87.52 78.74C87.6861 78.4556 87.766 78.129 87.75 77.8C87.7598 77.6584 87.7327 77.5167 87.6714 77.3888C87.61 77.2608 87.5165 77.151 87.4 77.07C87.4 76.97 87.47 76.97 87.51 76.95L88.14 76.69L88.36 76.63C88.26 76.93 88.21 76.96 87.95 76.94H87.87L87.75 77.01L87.88 77.18L88.36 77.09L88.21 77.24C88.21 77.3 88.21 77.33 88.31 77.3L88.5 77.23C88.5 77.23 88.5 77.23 88.56 77.23L88.31 77.58C88.3245 77.6112 88.3412 77.6412 88.36 77.67C88.36 77.67 88.45 77.67 88.49 77.67L88.63 77.58C88.7 77.58 88.71 77.65 88.69 77.71C88.67 77.77 88.69 77.84 88.63 77.93C88.57 78.02 88.75 77.84 88.82 77.83C88.89 77.82 88.82 77.94 88.82 77.99C88.82 78.04 88.99 77.99 88.94 78.12C88.9788 78.1725 89.006 78.2326 89.0198 78.2964C89.0336 78.3602 89.0337 78.4262 89.02 78.49L89.19 78.42L89.13 78.69H89.24C89.24 78.91 89.06 79.09 89.07 79.31L89.18 79.13C89.18 79.28 89.18 79.43 89.18 79.58C89.18 79.73 89.02 79.83 88.94 79.96C88.86 80.09 88.94 79.96 88.94 80.02L89 79.96C88.9945 80.0882 88.941 80.2096 88.85 80.3L88.6 80.57L88.98 80.36C88.8721 80.5315 88.7254 80.6752 88.5517 80.7795C88.3779 80.8837 88.1821 80.9456 87.98 80.96C87.7216 81.0108 87.4699 81.0913 87.23 81.2L87.21 81.16ZM88.04 85.16C87.7981 85.144 87.5684 85.0478 87.3873 84.8866C87.2061 84.7254 87.084 84.5085 87.04 84.27C87.0304 84.1903 87.0304 84.1097 87.04 84.03C87.0305 83.9704 87.0305 83.9097 87.04 83.85C87.0767 83.4766 87.1926 83.1152 87.38 82.79C87.47 82.59 87.48 82.6 87.65 82.48V82.38C87.7497 82.3305 87.8305 82.2497 87.88 82.15C88.0021 81.9184 88.1854 81.7246 88.41 81.59C88.6765 81.413 88.9537 81.2527 89.24 81.11L89.65 80.97C89.65 81.05 89.7 81.13 89.79 81.13C89.88 81.13 89.79 81.13 89.79 81.19L89.57 81.4C89.64 81.46 89.68 81.4 89.73 81.4C89.78 81.4 89.94 81.4 89.99 81.45C90.0249 81.4941 90.0438 81.5488 90.0438 81.605C90.0438 81.6613 90.0249 81.7159 89.99 81.76C89.9942 81.7764 89.9942 81.7936 89.99 81.81C90.18 81.75 90.18 81.75 90.22 82.04C90.16 82.15 90.08 82.26 90 82.38C90.14 82.38 90.16 82.15 90.31 82.26C90.2483 82.3805 90.1746 82.4944 90.09 82.6C90.17 82.6 90.23 82.48 90.33 82.6C90.25 82.73 90.16 82.85 90.05 83C90.19 83 90.24 82.82 90.37 82.84C90.32 83.02 90.14 83.13 90.1 83.34C90.24 83.28 90.26 83.1 90.41 83.09C90.318 83.2899 90.2075 83.4807 90.08 83.66C90.14 83.66 90.16 83.66 90.2 83.66L90.28 83.58C90.33 83.64 90.28 83.68 90.28 83.73C90.0952 83.9828 89.944 84.2584 89.83 84.55C89.922 84.4236 90.0222 84.3033 90.13 84.19C90.25 84.09 90.27 83.9 90.45 83.79C90.3204 84.1017 90.1339 84.3866 89.9 84.63H90.01C90.077 84.5863 90.1516 84.5558 90.23 84.54L90.09 84.68L89.93 84.81C89.9349 84.8599 89.9349 84.9101 89.93 84.96C89.6773 85.167 89.366 85.2894 89.04 85.31C88.66 85.2 88.36 85.2 88.04 85.2V85.16ZM90.42 85.88C90.378 85.8953 90.332 85.8953 90.29 85.88L89.29 85.41L89.78 85.27C89.85 85.27 89.92 85.27 89.98 85.27C90.04 85.27 90.09 85.27 90.14 85.27H90.33V85.41L90.53 85.6C90.5363 85.652 90.5316 85.7047 90.5161 85.7547C90.5006 85.8047 90.4746 85.8508 90.44 85.89L90.42 85.88ZM91.54 90.38C91.3814 90.4635 91.2178 90.537 91.05 90.6C90.9144 90.6569 90.7649 90.672 90.6206 90.6435C90.4763 90.615 90.3438 90.5441 90.24 90.44C90.211 90.3834 90.1908 90.3227 90.18 90.26C90.12 90.26 90.02 90.21 89.97 90.14C89.9128 90.0452 89.8754 89.9397 89.86 89.83C89.7999 89.4591 89.7999 89.0809 89.86 88.71C89.8738 88.6146 89.8973 88.5207 89.93 88.43C89.9497 88.3693 89.9841 88.3144 90.03 88.27C90.2057 88.1367 90.4015 88.0321 90.61 87.96C90.8498 88.2006 91.0341 88.4907 91.15 88.81C91.2203 89.0038 91.2203 89.2162 91.15 89.41C91.15 89.49 91.15 89.57 91.09 89.68C91.19 89.62 91.19 89.53 91.22 89.45C91.2535 89.3622 91.2803 89.2719 91.3 89.18C91.3322 89.2671 91.3322 89.3629 91.3 89.45C91.3048 89.5233 91.3048 89.5967 91.3 89.67C91.2798 89.7683 91.253 89.8652 91.22 89.96L91.49 89.7C91.4534 89.9288 91.3755 90.1491 91.26 90.35C91.38 90.41 91.46 90.35 91.56 90.28C91.66 90.21 91.59 90.37 91.56 90.39L91.54 90.38Z" fill="white"/>
<path d="M100.75 97.2L100.66 97.32L93.92 106.62L93.61 107.05C93.49 107.22 93.36 107.39 93.21 107.57C92.2282 108.843 91.1696 110.056 90.04 111.2L89.91 111.34L90.04 111.49C85.1806 116.645 79.3174 120.751 72.8113 123.554C66.3053 126.357 59.2942 127.799 52.21 127.79C45.3812 127.806 38.6163 126.476 32.3013 123.878C25.9863 121.279 20.2451 117.462 15.4053 112.644C10.5655 107.827 6.72197 102.103 4.09416 95.8004C1.46636 89.4975 0.105741 82.7387 0.0899822 75.91C0.0742236 69.0813 1.40363 62.3163 4.00232 56.0013C6.60101 49.6864 10.4181 43.9451 15.2356 39.1053C20.0531 34.2655 25.7767 30.422 32.0796 27.7942C38.3825 25.1664 45.1412 23.8057 51.97 23.79C53.37 23.79 54.76 23.86 56.14 23.97L57.32 24.07L58.2 24.17C58.9 24.25 59.59 24.35 60.28 24.45H60.48C60.95 24.52 61.43 24.59 61.91 24.68H62.17C62.6 24.76 63.04 24.85 63.52 24.97C68.8704 26.1488 73.9982 28.1743 78.71 30.97C79.71 31.55 80.58 32.12 81.46 32.73C82.7933 33.63 84.0633 34.5833 85.27 35.59C85.83 36.05 86.35 36.51 86.89 36.99L86.99 37.08C87.18 37.24 87.37 37.41 87.56 37.6L87.66 37.7L87.76 37.79C87.8267 37.8569 87.8968 37.9203 87.97 37.98L88.22 38.23C88.43 38.42 88.63 38.62 88.83 38.82C89.31 39.29 89.78 39.82 90.24 40.27L92.46 42.83C92.56 42.96 92.7 43.1 92.83 43.29L97.04 49.2L94.93 52.07L94.66 52.44L85.42 65.01L84.85 65.79L82.41 69.2L81.78 68.32L80.04 65.92L79.12 64.67L73.96 57.52L73.83 57.39C73.11 56.6 72.39 55.86 71.65 55.17V55.24C66.8093 50.5665 60.4567 47.7786 53.74 47.38C53.25 47.38 52.74 47.38 52.26 47.38C47.2413 47.3769 42.3112 48.7029 37.9712 51.2231C33.6312 53.7434 30.0359 57.3679 27.551 61.7282C25.066 66.0885 23.78 71.0292 23.8238 76.0477C23.8675 81.0662 25.2394 85.9836 27.8 90.3C28.3025 91.1453 28.8499 91.9632 29.44 92.75C31.745 95.8375 34.6496 98.428 37.9797 100.366C41.3098 102.304 44.9968 103.551 48.82 104.03H48.99H49.47C50.31 104.11 51.16 104.15 52.02 104.15C54.3784 104.159 56.7291 103.88 59.02 103.32H59.04L59.5 103.2C60.3 102.98 61.11 102.72 61.93 102.41L62.58 102.15C63.37 101.82 64.17 101.45 64.95 101.03L66.3 100.27L66.66 100.05C69.8526 98.003 72.6815 95.4378 75.03 92.46L75.39 91.98L75.44 91.89L76.04 91.2L76.75 90.26L80.85 84.61L81.19 84.14C81.19 84.14 82.73 81.64 82.91 81.79L83.05 81.57L83.23 81.33L83.73 80.65L84.24 79.95L84.4 79.72L84.54 79.54L86.31 77.08C86.3895 77.1242 86.4634 77.1779 86.53 77.24L86.44 77.35C86.1618 77.6518 85.9232 77.9879 85.73 78.35C85.4165 78.8914 85.2801 79.5172 85.34 80.14C85.3529 80.4031 85.4232 80.6602 85.5458 80.8934C85.6685 81.1266 85.8405 81.3302 86.05 81.49C86.4026 81.7294 86.8245 81.8455 87.25 81.82H87.7L87.05 82.82C86.7725 83.1976 86.641 83.663 86.68 84.13C86.675 84.1832 86.675 84.2368 86.68 84.29C86.6977 84.5697 86.7824 84.841 86.9268 85.0811C87.0713 85.3213 87.2712 85.5232 87.51 85.67C87.6709 85.7711 87.8606 85.8168 88.05 85.8C88.21 85.8 88.38 85.8 88.54 85.75C88.8288 85.7078 89.1236 85.7605 89.38 85.9C89.9144 86.189 90.423 86.5236 90.9 86.9C91.0092 86.968 91.0879 87.0754 91.12 87.2L90.94 87.33C90.5879 87.5576 90.2536 87.8117 89.94 88.09C89.7695 88.2415 89.6339 88.4281 89.5424 88.6369C89.451 88.8458 89.4058 89.072 89.41 89.3C89.3855 89.8165 89.5489 90.3246 89.87 90.73C89.976 90.8924 90.127 91.0205 90.3046 91.0986C90.4821 91.1767 90.6786 91.2015 90.87 91.17L91.38 91.06L91.9 90.92C91.9882 90.9928 92.0454 91.0965 92.06 91.21C92.21 91.77 92.37 92.32 92.52 92.88C92.6298 93.2729 92.7841 93.652 92.98 94.01C93.1291 94.268 93.3473 94.4793 93.61 94.62C93.7031 94.6604 93.8003 94.6906 93.9 94.71C94.0417 94.72 94.1832 94.686 94.3049 94.6126C94.4266 94.5392 94.5227 94.43 94.58 94.3C94.58 94.24 94.58 94.14 94.69 94.12C94.8 94.1 94.69 94.12 94.69 94.2C94.7328 94.4698 94.8032 94.7345 94.9 94.99C95.009 95.3467 95.2255 95.661 95.52 95.89C95.8406 96.1286 96.2254 96.2656 96.6246 96.2834C97.0239 96.3012 97.4194 96.199 97.76 95.99L98 95.85C98.07 95.85 98.12 95.72 98.22 95.69L98.41 96.34C98.4828 96.6266 98.6382 96.8855 98.8568 97.0846C99.0755 97.2837 99.3478 97.4143 99.64 97.46H99.72C100.08 97.4678 100.436 97.3779 100.75 97.2Z" fill="white"/>
<path d="M499.471 172.9V136.398H503.677V149.873H504.034C504.343 149.397 504.77 148.791 505.317 148.055C505.875 147.306 506.671 146.641 507.705 146.058C508.751 145.464 510.165 145.167 511.947 145.167C514.252 145.167 516.284 145.743 518.043 146.896C519.801 148.049 521.174 149.682 522.16 151.797C523.146 153.912 523.639 156.408 523.639 159.283C523.639 162.182 523.146 164.695 522.16 166.822C521.174 168.937 519.807 170.577 518.06 171.742C516.314 172.894 514.3 173.47 512.018 173.47C510.26 173.47 508.852 173.179 507.794 172.597C506.737 172.003 505.923 171.332 505.353 170.583C504.782 169.823 504.343 169.193 504.034 168.694H503.535V172.9H499.471ZM503.606 159.212C503.606 161.279 503.909 163.103 504.515 164.684C505.121 166.252 506.006 167.482 507.171 168.373C508.335 169.252 509.761 169.692 511.448 169.692C513.207 169.692 514.674 169.228 515.85 168.302C517.039 167.363 517.93 166.103 518.524 164.523C519.13 162.931 519.433 161.161 519.433 159.212C519.433 157.287 519.136 155.552 518.542 154.007C517.959 152.451 517.074 151.221 515.886 150.318C514.71 149.403 513.23 148.946 511.448 148.946C509.737 148.946 508.299 149.379 507.135 150.247C505.97 151.102 505.091 152.302 504.497 153.847C503.903 155.38 503.606 157.168 503.606 159.212ZM531.802 183.166C531.089 183.166 530.454 183.107 529.895 182.988C529.337 182.881 528.95 182.774 528.737 182.667L529.806 178.96C530.828 179.221 531.731 179.316 532.515 179.245C533.299 179.174 533.994 178.823 534.6 178.194C535.218 177.576 535.783 176.572 536.294 175.181L537.078 173.043L526.954 145.524H531.517L539.074 167.339H539.359L546.916 145.524H551.479L539.858 176.892C539.335 178.306 538.688 179.477 537.915 180.404C537.143 181.342 536.246 182.037 535.224 182.489C534.214 182.94 533.074 183.166 531.802 183.166ZM573.214 136.398L584.051 167.125H584.478L595.315 136.398H599.949L586.546 172.9H581.983L568.58 136.398H573.214ZM605.064 172.9V145.524H609.27V172.9H605.064ZM607.203 140.961C606.383 140.961 605.676 140.682 605.082 140.123C604.5 139.565 604.209 138.893 604.209 138.109C604.209 137.325 604.5 136.654 605.082 136.095C605.676 135.537 606.383 135.258 607.203 135.258C608.023 135.258 608.724 135.537 609.306 136.095C609.9 136.654 610.197 137.325 610.197 138.109C610.197 138.893 609.9 139.565 609.306 140.123C608.724 140.682 608.023 140.961 607.203 140.961ZM621.181 156.431V172.9H616.975V145.524H621.038V149.801H621.395C622.036 148.411 623.011 147.294 624.318 146.45C625.625 145.595 627.312 145.167 629.379 145.167C631.233 145.167 632.855 145.547 634.245 146.308C635.635 147.056 636.717 148.197 637.489 149.73C638.261 151.251 638.647 153.176 638.647 155.505V172.9H634.441V155.79C634.441 153.639 633.883 151.964 632.766 150.764C631.649 149.552 630.116 148.946 628.167 148.946C626.825 148.946 625.625 149.237 624.567 149.819C623.522 150.401 622.696 151.251 622.09 152.368C621.484 153.485 621.181 154.839 621.181 156.431ZM646.334 183.166V145.524H650.397V149.873H650.896C651.205 149.397 651.633 148.791 652.18 148.055C652.738 147.306 653.534 146.641 654.568 146.058C655.614 145.464 657.028 145.167 658.81 145.167C661.115 145.167 663.147 145.743 664.905 146.896C666.664 148.049 668.036 149.682 669.023 151.797C670.009 153.912 670.502 156.408 670.502 159.283C670.502 162.182 670.009 164.695 669.023 166.822C668.036 168.937 666.67 170.577 664.923 171.742C663.177 172.894 661.163 173.47 658.881 173.47C657.123 173.47 655.715 173.179 654.657 172.597C653.6 172.003 652.786 171.332 652.215 170.583C651.645 169.823 651.205 169.193 650.896 168.694H650.54V183.166H646.334ZM650.469 159.212C650.469 161.279 650.772 163.103 651.378 164.684C651.984 166.252 652.869 167.482 654.033 168.373C655.198 169.252 656.624 169.692 658.311 169.692C660.069 169.692 661.537 169.228 662.713 168.302C663.901 167.363 664.793 166.103 665.387 164.523C665.993 162.931 666.296 161.161 666.296 159.212C666.296 157.287 665.999 155.552 665.404 154.007C664.822 152.451 663.937 151.221 662.749 150.318C661.572 149.403 660.093 148.946 658.311 148.946C656.6 148.946 655.162 149.379 653.998 150.247C652.833 151.102 651.954 152.302 651.36 153.847C650.766 155.38 650.469 157.168 650.469 159.212ZM676.918 172.9V145.524H680.982V149.659H681.267C681.766 148.304 682.669 147.205 683.976 146.361C685.283 145.518 686.757 145.096 688.396 145.096C688.705 145.096 689.091 145.102 689.555 145.114C690.018 145.126 690.369 145.143 690.606 145.167V149.445C690.464 149.409 690.137 149.356 689.626 149.284C689.127 149.201 688.598 149.16 688.04 149.16C686.709 149.16 685.521 149.439 684.475 149.997C683.442 150.544 682.622 151.304 682.016 152.279C681.422 153.241 681.125 154.34 681.125 155.576V172.9H676.918ZM705.881 173.47C703.409 173.47 701.241 172.882 699.375 171.706C697.522 170.53 696.072 168.884 695.027 166.769C693.993 164.654 693.476 162.182 693.476 159.354C693.476 156.503 693.993 154.013 695.027 151.887C696.072 149.76 697.522 148.108 699.375 146.932C701.241 145.755 703.409 145.167 705.881 145.167C708.352 145.167 710.515 145.755 712.368 146.932C714.234 148.108 715.684 149.76 716.717 151.887C717.763 154.013 718.286 156.503 718.286 159.354C718.286 162.182 717.763 164.654 716.717 166.769C715.684 168.884 714.234 170.53 712.368 171.706C710.515 172.882 708.352 173.47 705.881 173.47ZM705.881 169.692C707.758 169.692 709.303 169.211 710.515 168.248C711.727 167.286 712.624 166.02 713.206 164.452C713.788 162.883 714.08 161.184 714.08 159.354C714.08 157.525 713.788 155.82 713.206 154.239C712.624 152.659 711.727 151.382 710.515 150.407C709.303 149.433 707.758 148.946 705.881 148.946C704.003 148.946 702.459 149.433 701.247 150.407C700.035 151.382 699.138 152.659 698.556 154.239C697.973 155.82 697.682 157.525 697.682 159.354C697.682 161.184 697.973 162.883 698.556 164.452C699.138 166.02 700.035 167.286 701.247 168.248C702.459 169.211 704.003 169.692 705.881 169.692Z" fill="white"/>
</g>
<defs>
<clipPath id="clip0_1894_2027">
<rect width="726.08" height="186.64" fill="white"/>
</clipPath>
</defs>
</svg>
